<?xml version="1.0" encoding="iso-8859-1"?><!DOCTYPE svg PUBLIC "-//W3C//DTD SVG 1.1//EN" "http://www.w3.org/Graphics/SVG/1.1/DTD/svg11.dtd"><svg xmlns="http://www.w3.org/2000/svg" xmlns:xlink="http://www.w3.org/1999/xlink"><symbol viewBox="0 0 166.418 166.418" xml:space="preserve" id="map-point_1" xmlns="http://www.w3.org/2000/svg"><path d="M83.209 166.418c-7.121 0-13.11-4.387-15.258-11.176l-3.572-11.285c-5.089-16.083-13.75-31.047-25.742-44.478a59.588 59.588 0 0 1-15.156-40.078c.086-15.993 6.312-30.945 17.53-42.102C52.229 6.144 67.215 0 83.209 0c32.934 0 59.728 26.794 59.728 59.729 0 15.138-5.676 29.576-15.982 40.657-11.19 12.03-19.574 26.691-24.917 43.575l-3.57 11.281c-2.149 6.789-8.138 11.176-15.259 11.176zM83.209 5C52.685 5 28.645 28.908 28.481 59.429A54.597 54.597 0 0 0 42.367 96.15c12.465 13.961 21.475 29.538 26.779 46.3l3.572 11.285c1.793 5.665 6.595 7.684 10.492 7.684 3.896 0 8.698-2.019 10.491-7.684l3.57-11.281c5.568-17.597 14.324-32.896 26.023-45.474 9.443-10.151 14.644-23.381 14.644-37.251C137.937 29.551 113.387 5 83.209 5zm0 86.996c-18.188 0-32.984-14.797-32.984-32.984 0-18.188 14.797-32.985 32.984-32.985 18.188 0 32.985 14.797 32.985 32.985 0 18.187-14.797 32.984-32.985 32.984zm0-60.97c-15.431 0-27.984 12.554-27.984 27.985s12.554 27.984 27.984 27.984c15.431 0 27.985-12.554 27.985-27.984 0-15.431-12.554-27.985-27.985-27.985z"/></symbol><symbol viewBox="0 0 512 512" xml:space="preserve" id="map-point_2" xmlns="http://www.w3.org/2000/svg"><path d="M256 0c-85.603 0-155.242 69.64-155.242 155.242 0 82.593 141.696 288.676 147.729 297.413a9.122 9.122 0 0 0 7.513 3.94 9.12 9.12 0 0 0 7.513-3.94c6.033-8.736 147.729-214.819 147.729-297.413C411.243 69.64 341.603 0 256 0zm0 431.166c-29.679-44.334-136.979-209.271-136.979-275.924 0-75.53 61.449-136.979 136.979-136.979 75.53 0 136.979 61.449 136.979 136.979 0 66.635-107.305 231.586-136.979 275.924z"/><path d="M256 91.319c-35.248 0-63.923 28.676-63.923 63.923 0 35.249 28.675 63.923 63.923 63.923 35.248 0 63.923-28.674 63.923-63.923 0-35.247-28.675-63.923-63.923-63.923zm0 109.583c-25.175 0-45.66-20.484-45.66-45.66 0-25.174 20.484-45.66 45.66-45.66 25.175 0 45.66 20.486 45.66 45.66 0 25.176-20.485 45.66-45.66 45.66zM456.661 500.164l-36.528-154.936c-.972-4.124-4.655-6.734-8.891-6.734h-36.528a9.133 9.133 0 0 0 0 18.264h29.295l32.229 136.979H75.761l32.229-136.979h29.295a9.133 9.133 0 0 0 0-18.264h-36.528c-4.236 0-7.919 2.61-8.891 6.734l-36.528 155.09c-.638 2.716 0 5.803 1.735 7.993 1.73 2.185 4.365 3.69 7.157 3.69h383.54c2.791 0 5.426-1.582 7.156-3.767 1.735-2.19 2.373-5.354 1.735-8.07z"/></symbol><symbol viewBox="0 0 512.457 512.457" xml:space="preserve" id="phone_1" xmlns="http://www.w3.org/2000/svg"><path d="M505.847 376.187c-2.506-4.739-5.667-9.463-9.428-14.215-8.571-10.83-20.227-21.791-34.287-32.906-9.809-7.755-20.237-15.145-30.657-21.961-6.267-4.1-11.191-7.129-14.123-8.847-24.749-14.092-53.262-12.224-67.987 11.507-.684.812-1.553 1.841-2.567 3.034a676.664 676.664 0 0 1-8.252 9.535l-1.151 1.298c-4.427 4.973-8.479 9.158-8.33 9.057-16.299 11.031-26.909 10.163-41.279-4.208l-103.81-103.808c-14.37-14.37-15.239-24.98-4.201-41.289-.107.158 4.078-3.894 9.051-8.321l1.298-1.151a676.664 676.664 0 0 1 9.535-8.252 720.108 720.108 0 0 1 3.034-2.567c23.731-14.725 25.602-43.232 11.64-67.756-1.851-3.163-4.88-8.086-8.98-14.354-6.816-10.42-14.206-20.848-21.961-30.657-11.114-14.06-22.076-25.716-32.906-34.287-4.752-3.761-9.477-6.922-14.222-9.432-22.077-11.67-49.146-7.606-66.816 10.03L46.514 39.592c-76.079 76.079-55.111 166.746 35.804 257.661l66.43 66.451 66.458 66.437c90.913 90.913 181.581 111.881 257.666 35.795l22.919-22.94c17.659-17.625 21.74-44.738 10.056-66.809zm-40.218 36.632-22.934 22.955c-55.66 55.66-120.958 40.559-197.322-35.804l-66.456-66.434-66.427-66.448c-76.366-76.366-91.467-141.664-35.8-197.331l22.919-22.94c4.408-4.4 11.174-5.415 16.709-2.489 2.276 1.204 4.866 2.937 7.688 5.17 7.823 6.191 16.675 15.605 25.913 27.291 6.887 8.712 13.561 18.13 19.727 27.554 3.689 5.64 6.357 9.977 7.74 12.337 3.849 6.764 3.612 9.72 2.477 10.358l-3.217 2.217a671.42 671.42 0 0 0-4.631 3.907 725.891 725.891 0 0 0-10.144 8.78l-1.418 1.257c-8.44 7.514-13.205 12.127-16.009 16.265-22.372 33.057-19.645 66.377 9.36 95.382l103.808 103.808c29.005 29.005 62.325 31.733 95.373 9.367 4.147-2.81 8.76-7.575 16.274-16.015.63-.709.63-.709 1.257-1.418a719.31 719.31 0 0 0 8.78-10.144c1.76-2.069 3.12-3.686 3.907-4.631l2.217-3.217c.637-1.135 3.594-1.371 10.589 2.611 2.129 1.25 6.466 3.918 12.106 7.607 9.425 6.165 18.842 12.839 27.555 19.727 11.686 9.238 21.099 18.09 27.29 25.913 2.233 2.821 3.966 5.412 5.173 7.693a14.17 14.17 0 0 1-2.504 16.672z"/></symbol><symbol viewBox="0 0 488.4 488.4" xml:space="preserve" id="search_1" xmlns="http://www.w3.org/2000/svg"><path d="M0 203.25c0 112.1 91.2 203.2 203.2 203.2 51.6 0 98.8-19.4 134.7-51.2l129.5 129.5c2.4 2.4 5.5 3.6 8.7 3.6s6.3-1.2 8.7-3.6c4.8-4.8 4.8-12.5 0-17.3l-129.6-129.5c31.8-35.9 51.2-83 51.2-134.7C406.4 91.15 315.2.05 203.2.05S0 91.15 0 203.25zm381.9 0c0 98.5-80.2 178.7-178.7 178.7s-178.7-80.2-178.7-178.7 80.2-178.7 178.7-178.7 178.7 80.1 178.7 178.7z"/></symbol><symbol viewBox="0 0 24 24" fill="none" id="search_2" xmlns="http://www.w3.org/2000/svg"><path d="M14.954 14.946 21 21m-4-11a7 7 0 1 1-14 0 7 7 0 0 1 14 0Z"/></symbol><symbol viewBox="0 0 24 24" fill="none" id="search_3" xmlns="http://www.w3.org/2000/svg"><path clip-rule="evenodd" d="M10 5a5 5 0 1 0 0 10 5 5 0 0 0 0-10Zm-7 5a7 7 0 1 1 12.606 4.192l5.101 5.1a1 1 0 0 1-1.414 1.415l-5.1-5.1A7 7 0 0 1 3 10Z"/></symbol></svg>