<?xml version="1.0" encoding="utf-8"?><!DOCTYPE svg PUBLIC "-//W3C//DTD SVG 1.1//EN" "http://www.w3.org/Graphics/SVG/1.1/DTD/svg11.dtd"><svg xmlns="http://www.w3.org/2000/svg" xmlns:xlink="http://www.w3.org/1999/xlink"><symbol viewBox="0 0 512 512" id="binefit_1" xmlns="http://www.w3.org/2000/svg"><path d="m175.8 99.335 36.099 29.015-12.15 44.691c-1.279 4.706.443 9.599 4.389 12.466a11.6 11.6 0 0 0 6.835 2.241c2.208 0 4.42-.638 6.377-1.919l38.749-25.366 38.75 25.366c4.08 2.67 9.265 2.542 13.211-.322 3.945-2.867 5.668-7.759 4.389-12.466L300.3 128.35l36.099-29.014c3.801-3.055 5.284-8.027 3.776-12.666s-5.629-7.789-10.499-8.025l-46.258-2.255-16.439-43.298C265.25 28.541 260.98 25.6 256.1 25.6s-9.151 2.941-10.878 7.491l-16.439 43.298-46.257 2.255c-4.871.236-8.993 3.386-10.5 8.025s-.027 9.61 3.774 12.666zm56.617-7.104a11.633 11.633 0 0 0 10.31-7.492L256.1 49.517l13.373 35.221a11.634 11.634 0 0 0 10.312 7.493l37.631 1.834-29.367 23.604a11.635 11.635 0 0 0-3.937 12.121l9.884 36.356-31.524-20.636a11.636 11.636 0 0 0-12.746 0l-31.521 20.635 9.884-36.356a11.634 11.634 0 0 0-3.939-12.122l-29.366-23.603zM89.956 264.918c2.108 3.684 5.924 5.859 10.054 5.859.616 0 1.238-.048 1.863-.147 4.817-.763 8.574-4.34 9.571-9.115l9.463-45.336 45.337-9.464c4.774-.997 8.352-4.754 9.114-9.572.762-4.817-1.48-9.495-5.712-11.917l-40.192-23.01 5.009-46.041c.527-4.849-1.939-9.412-6.286-11.626-4.345-2.214-9.488-1.528-13.099 1.749l-34.304 31.115-42.239-18.992c-4.439-1.997-9.538-1.058-12.989 2.394-3.452 3.451-4.392 8.55-2.396 12.99l18.992 42.24-31.115 34.304c-3.276 3.612-3.963 8.754-1.749 13.1s6.778 6.814 11.626 6.286l46.042-5.009zM55.914 184.68a11.633 11.633 0 0 0 1.994-12.589l-15.45-34.362 34.363 15.45a11.634 11.634 0 0 0 12.589-1.994l27.906-25.312-4.075 37.456a11.63 11.63 0 0 0 5.787 11.355l32.697 18.718-36.88 7.699a11.63 11.63 0 0 0-9.013 9.012l-7.698 36.881-18.719-32.697a11.634 11.634 0 0 0-11.357-5.786l-37.455 4.075zm445.059 26.152-31.116-34.305 18.992-42.239c1.997-4.439 1.058-9.539-2.394-12.99-3.451-3.452-8.549-4.391-12.99-2.395l-42.239 18.992-34.305-31.115c-3.612-3.277-8.754-3.962-13.1-1.749-4.346 2.214-6.813 6.778-6.286 11.626l5.009 46.042-40.191 23.01c-4.232 2.422-6.475 7.1-5.712 11.917.762 4.817 4.34 8.575 9.115 9.572l45.336 9.464 9.463 45.336c.997 4.774 4.754 8.352 9.571 9.114.625.099 1.247.147 1.863.147 4.13 0 7.946-2.176 10.054-5.859l23.01-40.193 46.043 5.01c4.848.53 9.411-1.94 11.625-6.286s1.528-9.488-1.748-13.099zm-57.03-1.841a11.632 11.632 0 0 0-11.355 5.787l-18.718 32.697-7.699-36.882a11.631 11.631 0 0 0-9.013-9.011l-36.88-7.699 32.696-18.719a11.633 11.633 0 0 0 5.787-11.356l-4.075-37.455 27.904 25.311a11.634 11.634 0 0 0 12.591 1.996l34.362-15.45-15.45 34.363a11.633 11.633 0 0 0 1.995 12.588l25.312 27.907zm-87.148 173.282a149.829 149.829 0 0 0-60.921-33.409c23.95-13.811 40.118-39.666 40.118-69.242 0-44.052-35.839-79.891-79.892-79.891s-79.891 35.839-79.891 79.891c0 29.576 16.167 55.431 40.117 69.242a149.812 149.812 0 0 0-60.924 33.41c-27.438 24.812-44.707 58.649-48.626 95.276a8 8 0 0 0 7.954 8.851l282.736-.001a7.997 7.997 0 0 0 7.954-8.851c-3.918-36.628-21.187-70.464-48.625-95.276zm-100.721-22.761.027.001.026-.001c1.435 0 2.864.031 4.288.076l21.427 67.371-25.743 29.067-25.744-29.067 21.427-67.371c1.426-.045 2.856-.076 4.292-.076zm-63.865-79.89c0-35.229 28.662-63.891 63.891-63.891 35.23 0 63.892 28.662 63.892 63.891 0 35.221-28.648 63.876-63.865 63.89h-.053c-35.217-.015-63.865-28.67-63.865-63.89zm42.258 81.62-20.736 65.195a7.999 7.999 0 0 0 1.635 7.729l32.091 36.233h-123.53c9.856-56.671 54.596-100.138 110.54-109.157zM264.741 470.4l32.09-36.233a7.999 7.999 0 0 0 1.635-7.729l-20.735-65.196c55.943 9.019 100.683 52.485 110.54 109.157zM155.808 359.512a8 8 0 0 0 0-16H94.447c-3.524-12.949-15.379-22.5-29.428-22.5-16.818 0-30.5 13.683-30.5 30.5s13.683 30.5 30.5 30.5c14.05 0 25.904-9.552 29.428-22.5zm-90.789 6.5c-7.996 0-14.5-6.505-14.5-14.5 0-7.996 6.505-14.5 14.5-14.5s14.5 6.505 14.5 14.5-6.505 14.5-14.5 14.5zm382.164-45.001c-14.05 0-25.904 9.552-29.429 22.5h-61.361a8 8 0 0 0 0 16h61.361c3.524 12.948 15.379 22.5 29.429 22.5 16.818 0 30.5-13.682 30.5-30.5s-13.683-30.5-30.5-30.5zm0 45.001c-7.996 0-14.5-6.505-14.5-14.5 0-7.996 6.505-14.5 14.5-14.5s14.5 6.505 14.5 14.5-6.505 14.5-14.5 14.5z"/></symbol><symbol viewBox="0 0 185.344 185.344" xml:space="preserve" id="down-chevron_1" xmlns="http://www.w3.org/2000/svg"><path style="fill:#010002" d="M92.672 144.373a10.707 10.707 0 0 1-7.593-3.138L3.145 59.301c-4.194-4.199-4.194-10.992 0-15.18a10.72 10.72 0 0 1 15.18 0l74.347 74.341 74.347-74.341a10.72 10.72 0 0 1 15.18 0c4.194 4.194 4.194 10.981 0 15.18l-81.939 81.934a10.694 10.694 0 0 1-7.588 3.138z"/></symbol><symbol viewBox="0 0 166.418 166.418" xml:space="preserve" id="map-point_1" xmlns="http://www.w3.org/2000/svg"><path d="M83.209 166.418c-7.121 0-13.11-4.387-15.258-11.176l-3.572-11.285c-5.089-16.083-13.75-31.047-25.742-44.478a59.588 59.588 0 0 1-15.156-40.078c.086-15.993 6.312-30.945 17.53-42.102C52.229 6.144 67.215 0 83.209 0c32.934 0 59.728 26.794 59.728 59.729 0 15.138-5.676 29.576-15.982 40.657-11.19 12.03-19.574 26.691-24.917 43.575l-3.57 11.281c-2.149 6.789-8.138 11.176-15.259 11.176zM83.209 5C52.685 5 28.645 28.908 28.481 59.429A54.597 54.597 0 0 0 42.367 96.15c12.465 13.961 21.475 29.538 26.779 46.3l3.572 11.285c1.793 5.665 6.595 7.684 10.492 7.684 3.896 0 8.698-2.019 10.491-7.684l3.57-11.281c5.568-17.597 14.324-32.896 26.023-45.474 9.443-10.151 14.644-23.381 14.644-37.251C137.937 29.551 113.387 5 83.209 5zm0 86.996c-18.188 0-32.984-14.797-32.984-32.984 0-18.188 14.797-32.985 32.984-32.985 18.188 0 32.985 14.797 32.985 32.985 0 18.187-14.797 32.984-32.985 32.984zm0-60.97c-15.431 0-27.984 12.554-27.984 27.985s12.554 27.984 27.984 27.984c15.431 0 27.985-12.554 27.985-27.984 0-15.431-12.554-27.985-27.985-27.985z"/></symbol><symbol viewBox="0 0 512 512" xml:space="preserve" id="map-point_2" xmlns="http://www.w3.org/2000/svg"><path d="M256 0c-85.603 0-155.242 69.64-155.242 155.242 0 82.593 141.696 288.676 147.729 297.413a9.122 9.122 0 0 0 7.513 3.94 9.12 9.12 0 0 0 7.513-3.94c6.033-8.736 147.729-214.819 147.729-297.413C411.243 69.64 341.603 0 256 0zm0 431.166c-29.679-44.334-136.979-209.271-136.979-275.924 0-75.53 61.449-136.979 136.979-136.979 75.53 0 136.979 61.449 136.979 136.979 0 66.635-107.305 231.586-136.979 275.924z"/><path d="M256 91.319c-35.248 0-63.923 28.676-63.923 63.923 0 35.249 28.675 63.923 63.923 63.923 35.248 0 63.923-28.674 63.923-63.923 0-35.247-28.675-63.923-63.923-63.923zm0 109.583c-25.175 0-45.66-20.484-45.66-45.66 0-25.174 20.484-45.66 45.66-45.66 25.175 0 45.66 20.486 45.66 45.66 0 25.176-20.485 45.66-45.66 45.66zM456.661 500.164l-36.528-154.936c-.972-4.124-4.655-6.734-8.891-6.734h-36.528a9.133 9.133 0 0 0 0 18.264h29.295l32.229 136.979H75.761l32.229-136.979h29.295a9.133 9.133 0 0 0 0-18.264h-36.528c-4.236 0-7.919 2.61-8.891 6.734l-36.528 155.09c-.638 2.716 0 5.803 1.735 7.993 1.73 2.185 4.365 3.69 7.157 3.69h383.54c2.791 0 5.426-1.582 7.156-3.767 1.735-2.19 2.373-5.354 1.735-8.07z"/></symbol><symbol fill="none" viewBox="0 0 500 500" id="onlajn-shkola-bez-bg" xmlns="http://www.w3.org/2000/svg"><g clip-path="url(#ea)"><g filter="url(#eb)"><path d="m476.841 104.555 9.621 35.907-35.908-9.621 26.287-26.286Z" fill="url(#ec)"/></g><g filter="url(#ed)"><path d="m48.125 402.495 32.939 17.232-31.393 19.91-1.546-37.142Z" fill="url(#ee)"/></g><g clip-path="url(#ef)"><path d="M360.808 155.921a64.272 64.272 0 0 0-8.63 1.685c-15.476 4.136-22.388 14.074-23.747 16.361a38.931 38.931 0 0 0-4.188 9.007l1.854 1.741c5.637 5.293 20.319 12.11 26.068 18.254a78.555 78.555 0 0 1 6.163 12.973 7.913 7.913 0 0 1 4.369-2.103 6.328 6.328 0 0 1 5.213 1.466c1.976 1.843 2.57 5.268 2.105 7.971a16.108 16.108 0 0 1-5.539 10.07c.076.373.125.593.125.593 1.244 5.709 7.516 15.213 13.258 19.657l7.898 6.114c-.052-.803-.034-1.61.053-2.41.973-5.691 8.418-10.816 12.564-14.711 6.392-6.003 15.931-17.932 16.751-35.45a51.477 51.477 0 0 0-6.592-26.845c-10.562-18.337-23.72-22.343-31.892-23.983a49.951 49.951 0 0 0-15.833-.39Z" fill="#85807F"/><path d="M361.178 261.787a67.316 67.316 0 0 0-13.728 6.7l-1.232-3.3a58.568 58.568 0 0 0-3.054-7.377 2.21 2.21 0 0 0-2.504-1.491c-3.914.751-9.529-.015-14.129-1.66a25.91 25.91 0 0 1-2.092-.843 12.684 12.684 0 0 1-6.482-6.94 26.796 26.796 0 0 1-1.681-6.565 63.103 63.103 0 0 1-.633-9.643 10.175 10.175 0 0 0-1.982-4.469c-1.62-2.03-4.349-3.72-2.654-6.908a6.196 6.196 0 0 1 3.023-2.616c6.303-2.829 7.236-11.997 7.928-18.605.079-4.639.848-9.24 2.279-13.653l.371-1.103 1.49 1.396c5.638 5.294 20.32 12.111 26.069 18.255a78.346 78.346 0 0 1 6.161 12.969 7.951 7.951 0 0 1 4.369-2.095 6.328 6.328 0 0 1 5.213 1.466c1.976 1.843 2.57 5.268 2.105 7.971a16.11 16.11 0 0 1-5.539 10.07c.076.374.124.593.124.593 1.245 5.709 7.517 15.213 13.259 19.657l4.51 3.491a171.996 171.996 0 0 0-18.888 3.984c-.68.188-1.374.401-2.075.636l-.228.08ZM255.324 133.585c-30.212.602-142.159 2.963-181.452 3.85a4.437 4.437 0 0 0-4.342 4.439v125.644a4.443 4.443 0 0 0 4.725 4.434c52.655-3.131 144.677-8.538 181.456-11.047a4.428 4.428 0 0 0 4.136-4.428c0-19.095.008-98.54.009-118.452a4.441 4.441 0 0 0-2.804-4.13 4.42 4.42 0 0 0-1.728-.31Z" fill="#fff"/><path d="M143.296 286.966a9.141 9.141 0 0 1-.367-.345c-2.316-2.292-5.402-5.34-7.153-7.167a3.031 3.031 0 0 1-.686-3.36c.524-2.104 1.564-6.2 1.952-7.875a38630.06 38630.06 0 0 0 60.075-3.608l-.009.03-1.748 6.765a2.243 2.243 0 0 0 .809 2.352c3.316 2.539 6.961 5.326 9.134 7.163 1.389 1.114 1.252 4.51-1.095 4.732-2.37.225-35.104 2.304-54.236 3.594a9.123 9.123 0 0 1-6.676-2.281Z" fill="#fff"/><path d="M255.324 131.437c-7.166.143-14.333.29-21.5.439l-30.996.645c-12.076.252-24.154.506-36.232.763a112758.43 112758.43 0 0 0-83.181 1.789l-5.769.128c-2.208.049-4.695-.204-6.709.829-4.282 2.196-3.554 7.209-3.554 11.233V265.095c0 2.113-.142 4.282 1.137 6.112a6.659 6.659 0 0 0 4.268 2.777 18.94 18.94 0 0 0 4.414-.06c12.358-.735 24.717-1.468 37.076-2.201 13.888-.824 27.775-1.651 41.663-2.481 13.861-.83 27.722-1.667 41.583-2.51 12.082-.736 24.162-1.485 36.242-2.247 4.868-.309 9.739-.624 14.613-.943 2.082-.137 4.165-.275 6.247-.416a8.844 8.844 0 0 0 4.181-1.005 6.665 6.665 0 0 0 3.017-4.178c.23-1.624.288-3.268.172-4.905V141.932c0-1.3.047-2.609 0-3.908a6.707 6.707 0 0 0-6.678-6.588c-2.765-.058-2.765 4.237 0 4.295 2.404.051 2.383 2.233 2.383 4.036v113.94c0 1.315.349 3.233-.568 4.285-.738.845-1.812.796-2.838.866l-2.986.201a7287.412 7287.412 0 0 1-38.823 2.462c-12.989.802-25.979 1.593-38.97 2.372-13.782.83-27.565 1.653-41.35 2.47-12.931.77-25.864 1.538-38.797 2.303l-17.26 1.026c-1.143.068-2.544.404-3.532-.346a2.74 2.74 0 0 1-.897-2.446V146.368c0-1.345-.006-2.691 0-4.035a2.577 2.577 0 0 1 .983-2.346 4.884 4.884 0 0 1 2.753-.439c3.833-.086 7.665-.171 11.498-.255l29.706-.644a134107.159 134107.159 0 0 1 71.022-1.511 121873.249 121873.249 0 0 1 58.96-1.228l8.724-.177c2.758-.055 2.768-4.351-.002-4.296Z" fill="#211715"/><path d="m198.861 176.067-.072-.03a57.568 57.568 0 0 0-4.548-3.743c-3.543 12.101-7.989 24.999-12.634 36.69-3.544 8.93-4.649 11.779-9.251 21.304-3.464-9.688-4.267-12.671-6.822-21.826-3.382-12.116-6.443-25.412-8.681-37.821a53.934 53.934 0 0 0-8.448 6.106 122.16 122.16 0 0 0-12.757 5.035 22.76 22.76 0 0 0-7.216 5.133 25.627 25.627 0 0 0-4.413 7.753c-3.592 10.396-7.697 30.419-9.828 45.027-.488 3.595.506 8.934 3.211 10.295l3.927 1.974c42.63-2.51 83.803-4.832 109.957-6.321.393-1.185.563-2.434.502-3.681-.108-2.396-.26-4.794-.523-7.177a205.666 205.666 0 0 0-2.669-17.443c-2.057-10.38-2.752-14.15-5.1-23.177a26.32 26.32 0 0 0-2.997-5.95 26.514 26.514 0 0 0-5.579-5.315c-4.867-2.744-11.014-4.727-16.059-6.833Z" fill="#B3B3B3"/><path d="M149.548 133.181a4.086 4.086 0 0 0-2.947-1.088 3.788 3.788 0 0 0-3.406 1.88c-1.162 2.001-1.123 5.692-.354 7.981a12.33 12.33 0 0 0 3.601 5.879 4.407 4.407 0 0 0 3.75.951 31.03 31.03 0 0 0 5.854 11.125 25.087 25.087 0 0 0 6.395 5.683v.637c1.237 1.06 8.771 7.563 12.114 9.293h2.726c1.617-.851 11.006-8.054 11.835-9.469v-.644c5.544-3.651 9.818-11.022 10.641-13.238a26.45 26.45 0 0 0 1.203-3.235l.333.057a4.514 4.514 0 0 0 1.839-.132 4.513 4.513 0 0 0 1.631-.859 12.33 12.33 0 0 0 3.636-5.858c.782-2.283.842-5.976-.308-7.984a3.78 3.78 0 0 0-3.395-1.898 4.087 4.087 0 0 0-2.953 1.074s5.865-25.284-26.708-25.284c-27.528-.003-25.487 25.129-25.487 25.129Z" fill="#fff"/><path d="M207.869 118.102a27.42 27.42 0 0 0-7.378-16.107 27.957 27.957 0 0 0-5.327-3.728c-4.288-5.583-13.521-7.237-20.808-6.526-8.305.815-16.862 3.706-22.463 9.996-6.419 7.213-8.985 19.733-6.121 30.447.273-.053.551-.083.829-.091a4.13 4.13 0 0 1 2.569.777 4.048 4.048 0 0 0 3.162-3.339 32.863 32.863 0 0 1 2.606-8.43 12.326 12.326 0 0 1 5.525-5.822c.339-.186.609-.338.609-.338s8.888-4.997 17.814-4.323c8.353.632 11.908 4.072 11.908 4.072l1.317 1.274c6.19 4.147 9.157 13.908 9.634 17.372a4.074 4.074 0 0 1 2.953-1.074c.53.013 1.054.115 1.55.302a33.051 33.051 0 0 0 1.621-14.462Z" fill="#C6C6C6"/><path d="M190.418 117.428a14.243 14.243 0 0 1 3.881 3.58c-.145-.188.238.331.285.397a26.22 26.22 0 0 1 1.193 1.839 30.33 30.33 0 0 1 1.33 2.515 32.671 32.671 0 0 1 1.711 4.496 24.57 24.57 0 0 1 .859 3.651 2.16 2.16 0 0 0 2.643 1.503 2.202 2.202 0 0 0 1.503-2.643 32.717 32.717 0 0 0-3.094-9.373 22.32 22.32 0 0 0-8.133-9.664c-2.374-1.43-4.535 2.282-2.168 3.709l-.01-.01Z" fill="#211715"/><path d="M165.086 206.841a427.54 427.54 0 0 1-7.775-33.735 4.189 4.189 0 0 1 1.049-2.339c1.24-1.32 2.815-3.237 4.08-4.538 1.237 1.06 8.771 7.563 12.115 9.293h2.725c1.617-.851 11.006-8.054 11.835-9.469 1.194 1.456 2.653 3.577 3.819 5.047.575.758.883 1.684.876 2.635a425.057 425.057 0 0 1-12.203 35.253c-3.543 8.931-4.648 11.779-9.25 21.305-3.464-9.689-4.268-12.676-6.822-21.827-.151-.54-.3-1.081-.449-1.625Z" fill="#fff"/><path d="M169.438 221.814c-1.074-3.31-1.873-6.09-2.974-10.02 1.879-10.106 3.813-20.402 3.824-20.976.032-1.127-1.504-6.443-1.794-8.322l-.039-.197a70.09 70.09 0 0 1 6.1-6.777h2.725a45.575 45.575 0 0 1 4.635 5.769l-.685 1.611c-.419 1.45-1.514 5.97-1.955 8.086 0 1.89 1.202 9.893 1.986 18.864-3.281 8.257-4.456 11.226-8.905 20.434-1.25-3.493-2.153-6.117-2.918-8.472Z" fill="#3D8DCC"/><path d="M171.453 156.107a11.32 11.32 0 0 0 5.443 1.268 8.981 8.981 0 0 0 5.609-1.708c.18-.179.322-.392.419-.627.098-.234.148-.486.148-.74a1.972 1.972 0 0 0-.567-1.367 1.996 1.996 0 0 0-2.733 0c.67-.522 0-.026-.215.084-.163.085-.592.223.026.008-.147.05-.29.107-.438.16-.401.129-.83.155-1.226.28.199-.062.336-.04.042-.011a11.524 11.524 0 0 1-1.234.055 11.35 11.35 0 0 1-1.14-.057l-.202-.022c-.153-.019-.09-.01.189.025-.039-.06-.501-.09-.588-.107a7.741 7.741 0 0 1-1.034-.304c-.051-.019-.102-.042-.153-.06-.312-.107.46.215.183.077-.193-.099-.39-.189-.582-.291a1.937 1.937 0 0 0-2.645.694 1.937 1.937 0 0 0 .694 2.645l.004-.002ZM175.628 143.635c.237.855.428 1.722.57 2.597l-.07-.513c.018.118.021.239.011.358l.069-.514a.807.807 0 0 1-.04.161l.195-.462a.558.558 0 0 1-.057.108l.302-.391a.52.52 0 0 1-.085.084l.392-.303c-.066.04-.135.076-.206.107l.462-.195a1.503 1.503 0 0 1-.347.102l.514-.07a1.334 1.334 0 0 1-.322 0l.514.069c-.295-.041-.585-.093-.88-.132a1.918 1.918 0 0 0-1.367.565 1.943 1.943 0 0 0-.566 1.367 1.934 1.934 0 0 0 .566 1.367l.391.302c.296.174.633.265.976.264h.03l-.513-.068c.331.07.666.117 1.004.139a3.348 3.348 0 0 0 1.548-.401 2.339 2.339 0 0 0 1.213-1.546 3.717 3.717 0 0 0-.025-1.561 30.798 30.798 0 0 0-.548-2.47 1.992 1.992 0 0 0-.888-1.155 1.966 1.966 0 0 0-1.489-.194c-.485.135-.9.453-1.156.888a2.033 2.033 0 0 0-.195 1.489l-.003.008ZM162.326 136.059c-.454 1.481-.156 4.886 2.649 5.173 3.706-.024 3.901-4.141 2.651-6.076-1.018-1.581-4.021-2.241-5.3.903ZM190.873 136.045c.456 1.48.162 4.885-2.642 5.177-3.707-.021-3.906-4.137-2.661-6.074 1.024-1.589 4.024-2.25 5.303.897ZM118.486 248.135c-1.637-.91-2.087-3.596-2.219-5.325a31.017 31.017 0 0 1 .723-7.277 385.624 385.624 0 0 1 3.234-17.443c1.114-5.342 2.326-10.669 3.766-15.934 1.375-5.031 2.779-10.45 6.499-14.324 2.332-2.43 5.546-3.941 8.59-5.273 3.361-1.474 6.842-2.656 10.296-3.882 2.588-.918 1.473-5.07-1.141-4.142-6.472 2.297-13.507 4.393-18.988 8.68-4.952 3.872-7.136 9.908-8.817 15.739a301.828 301.828 0 0 0-7.644 35.843c-.52 3.248-1.103 6.387-.615 9.676.413 2.786 1.551 5.925 4.15 7.371 2.419 1.345 4.588-2.362 2.168-3.709h-.002Z" fill="#211715"/><path d="M135.631 211.168c-.449 6.683-1.143 13.347-1.787 20.013a2.159 2.159 0 0 0 2.147 2.148 2.195 2.195 0 0 0 2.148-2.148c.644-6.666 1.338-13.33 1.787-20.013a2.151 2.151 0 0 0-2.148-2.148 2.145 2.145 0 0 0-2.147 2.148ZM209.83 202.355c-1.527 15.063-3.257 30.099-5.787 45.031a2.207 2.207 0 0 0 1.503 2.641 2.164 2.164 0 0 0 2.642-1.503c2.594-15.31 4.375-30.73 5.94-46.173a2.159 2.159 0 0 0-2.147-2.148 2.195 2.195 0 0 0-2.148 2.148l-.003.004Z" fill="#211715"/><path d="M199.258 178.538c2.912 1.171 5.864 2.238 8.763 3.436 2.47 1.026 5.246 2.066 7.27 3.866.936.843 1.823 1.74 2.656 2.685a9.616 9.616 0 0 1 1.662 2.286 23.93 23.93 0 0 1 2.362 6.07 292.965 292.965 0 0 1 6.576 33.259c.501 3.758.897 7.516 1.061 11.299.102 2.35-.335 5.429-2.836 6.467a2.213 2.213 0 0 0-1.503 2.641 2.155 2.155 0 0 0 1.012 1.294c.494.282 1.08.357 1.629.209a9.356 9.356 0 0 0 5.526-6.114c.976-3.203.39-6.872.071-10.135-.729-7.462-2.021-14.842-3.476-22.191-1.052-5.318-2.124-10.631-3.425-15.893a35.841 35.841 0 0 0-2.499-7.557 23.133 23.133 0 0 0-4.346-5.975c-5.11-5.229-12.757-7.138-19.368-9.796a2.16 2.16 0 0 0-2.641 1.503 2.198 2.198 0 0 0 1.503 2.642l.003.004ZM164.015 226.983c-3.737-7.167-7.437-14.354-11.012-21.604a642.62 642.62 0 0 1-5.129-10.647 590.66 590.66 0 0 1-1.311-2.814c-.005-.012-.591-1.598-.716-.645.025-.184.936-.914 1.074-1.045 1.45-1.382 2.961-2.698 4.479-4.005a2.18 2.18 0 0 0 .505-.827 2.164 2.164 0 0 0-.94-2.545c-1.634-1.028-3.377-1.976-4.928-3.126l.771.77-.152-.258.293 1.083.022-.266-.293 1.085c.991-2.169 3.135-3.866 4.94-5.323a51.731 51.731 0 0 1 6.315-4.316l-3.155-1.288a431.677 431.677 0 0 0 11.496 47.691c1.16 3.84 2.47 7.631 3.813 11.409.92 2.586 5.072 1.473 4.142-1.141a365.488 365.488 0 0 1-12.399-44.563 416.914 416.914 0 0 1-2.91-14.536 2.154 2.154 0 0 0-1.266-1.408 2.156 2.156 0 0 0-1.889.125 48.252 48.252 0 0 0-10.054 7.558c-1.222 1.245-3.08 3.101-3.062 4.97.014 1.428 1.252 2.164 2.318 2.834l3.826 2.405-.427-3.371c-1.643 1.415-3.278 2.842-4.839 4.349a5.12 5.12 0 0 0-1.742 2.608 4.788 4.788 0 0 0 .644 3.006c1.841 4.069 3.786 8.092 5.746 12.104 3.923 8.03 8.01 15.979 12.142 23.904 1.277 2.453 4.985.283 3.707-2.168l-.009-.005ZM178.787 187.727c-2.718.107-5.444.156-8.166.181a2.145 2.145 0 0 0-2.147 2.148 2.145 2.145 0 0 0 2.147 2.147 261.44 261.44 0 0 0 8.166-.181 2.147 2.147 0 1 0 0-4.295Z" fill="#211715"/><path d="M183.41 209.867c-.482-5.455-1.191-10.88-1.779-16.321-.072-.666-.119-1.333-.186-1.999a3.803 3.803 0 0 1-.018-.37c0-.034-.056.256.032-.142l.322-1.425c.472-2.051.947-4.107 1.522-6.132.751-2.664-3.387-3.802-4.142-1.142-.574 2.024-1.05 4.081-1.521 6.133a13.583 13.583 0 0 0-.331 4.807c.585 5.534 1.317 11.049 1.808 16.593a2.2 2.2 0 0 0 2.148 2.148 2.162 2.162 0 0 0 2.147-2.148l-.002-.002ZM166.423 183.068c.362 2.18 1.023 4.309 1.494 6.467.058.261.107.523.163.785.011.057.129.652.063.335-.043-.203-.078.84.046-.16-.08.639-.209 1.276-.322 1.91-1.107 6.281-2.309 12.544-3.475 18.814-.503 2.702 3.637 3.861 4.141 1.142 1.196-6.426 2.439-12.845 3.558-19.285.311-1.45.32-2.949.026-4.402-.473-2.255-1.181-4.469-1.554-6.744a2.163 2.163 0 0 0-2.642-1.503 2.199 2.199 0 0 0-1.503 2.642l.005-.001Z" fill="#211715"/><path d="M160.922 164.715c-1.037 1.074-2.004 2.219-2.996 3.339a9.89 9.89 0 0 0-2.563 3.829c-.57 2.048.275 3.557 1.253 5.232a63.356 63.356 0 0 0 3.437 5.303 21.634 21.634 0 0 0 4.651 5.033 2.149 2.149 0 0 0 2.603-.336c2.774-3.437 5.467-7.115 8.768-10.07.229-.234.403-.516.508-.826a2.158 2.158 0 0 0-.938-2.547 41.094 41.094 0 0 1-6.507-4.638 221.887 221.887 0 0 1-5.174-4.319 2.2 2.2 0 0 0-3.036 0 2.163 2.163 0 0 0 0 3.037 208.671 208.671 0 0 0 5.361 4.471 46.926 46.926 0 0 0 7.188 5.154l-.435-3.373c-3.301 2.955-5.994 6.635-8.766 10.071l2.602-.336c-.381-.275.234.214-.108-.09a16.14 16.14 0 0 1-.493-.447 14.6 14.6 0 0 1-.94-.988 23.343 23.343 0 0 1-1.568-1.967 62.796 62.796 0 0 1-3.151-4.82 55.658 55.658 0 0 1-.966-1.678c-.099-.181-.184-.394-.301-.565-.053-.079-.234-.422.02.121.214.464.072-.022.14-.283.24-.906 1.135-1.565 1.771-2.288.884-1.005 1.756-2.021 2.685-2.985 1.91-1.993-1.124-5.034-3.045-3.034ZM185.565 229.565c4.845-7.302 9.477-14.729 14.001-22.228 2.272-3.764 4.593-7.516 6.771-11.331 1.289-2.255.814-3.767-.779-5.674-1.396-1.666-2.867-3.257-4.352-4.839l-.43 3.373 3.834-1.876c1.161-.569 2.362-1.111 2.6-2.52.33-1.921-1.534-4.099-2.644-5.495a48.478 48.478 0 0 0-9.235-8.535 2.155 2.155 0 0 0-1.891-.124 2.171 2.171 0 0 0-1.264 1.412 431.3 431.3 0 0 1-16.328 45.851c-1.535 3.644-3.221 7.221-4.932 10.782-1.192 2.481 2.51 4.662 3.709 2.168a370.237 370.237 0 0 0 17.262-43.515 420.44 420.44 0 0 0 4.431-14.147l-3.155 1.289a51.92 51.92 0 0 1 5.644 4.862 31.537 31.537 0 0 1 2.609 2.86 14.699 14.699 0 0 1 1.376 2.076c.149.282.15.827.162.236l.294-1.085-.179.242.77-.771c-1.663.979-3.497 1.738-5.23 2.586a2.178 2.178 0 0 0-1.034 1.582 2.18 2.18 0 0 0 .599 1.792c1.37 1.46 2.733 2.929 4.029 4.456.209.244.681 1.233.696.405-.006.353-.624 1.051-.794 1.336l-1.444 2.429c-2.019 3.39-4.049 6.773-6.09 10.15-4.113 6.775-8.326 13.489-12.71 20.09-1.533 2.31 2.185 4.463 3.709 2.168l-.005-.005Z" fill="#211715"/><path d="M187.598 167.571c.794.979 1.524 2.006 2.272 3.019.638.859 1.597 1.718 1.77 2.757-.03-.182.028.61.016.517-.01-.067.132-.359.065-.237-.083.154-.182.301-.275.451a43.721 43.721 0 0 1-1.074 1.622 50.987 50.987 0 0 1-3.222 4.295 29.893 29.893 0 0 1-1.96 2.129c-.314.305-.639.6-.974.883-.303.256.131-.061-.276.215-.178.118-.353.235-.537.345l2.938.771a34.017 34.017 0 0 0-3.097-4.865 42.934 42.934 0 0 0-4.447-5.465l-.435 3.374a49.367 49.367 0 0 0 6.648-4.859 92.135 92.135 0 0 0 3.651-2.989 11.396 11.396 0 0 0 2.307-2.391c1.468-2.353-2.248-4.51-3.708-2.168-.189.302.423-.429 0-.017-.149.147-.29.303-.44.449-.41.398-.837.775-1.269 1.148a96.667 96.667 0 0 1-3.582 2.931l-.429.338-.26.203c.119-.091.118-.091 0 0-.312.24-.623.478-.935.714a78.92 78.92 0 0 1-1.739 1.289 21.86 21.86 0 0 1-2.415 1.64 2.165 2.165 0 0 0-.94 2.545c.104.31.277.593.505.827a36.682 36.682 0 0 1 3.933 4.815 33.41 33.41 0 0 1 2.94 4.646 2.168 2.168 0 0 0 2.939.769 19.77 19.77 0 0 0 4.775-4.431 64.631 64.631 0 0 0 4.046-5.429c1.129-1.686 1.909-3.2 1.352-5.339a10.887 10.887 0 0 0-2.168-3.651c-.967-1.307-1.92-2.624-2.944-3.887-.404-.4-.95-.623-1.518-.623-.569 0-1.115.223-1.519.623a2.199 2.199 0 0 0 .006 3.036ZM151.063 131.663a6.607 6.607 0 0 0-7.221-1.083 6.273 6.273 0 0 0-3.277 4.201 15.28 15.28 0 0 0 2.177 12.076c1.586 2.375 4.113 4.522 7.163 4.135a2.214 2.214 0 0 0 2.147-2.148 2.157 2.157 0 0 0-2.147-2.147c-1.933.244-3.127-1.289-4.019-2.948a10.19 10.19 0 0 1-.859-2.031 11.193 11.193 0 0 1-.537-2.363 13.864 13.864 0 0 1-.042-1.498c.006-.42.042-.839.107-1.255.078-.447.199-.886.361-1.31-.115.284.252-.382.322-.53-.197.408-.136.174.025 0 .075-.082.453-.352.072-.097.156-.108.32-.205.49-.288-.352.164.227-.056.31-.075a2.064 2.064 0 0 1 1.894.402 2.197 2.197 0 0 0 3.037 0 2.173 2.173 0 0 0 0-3.038l-.003-.003ZM203.261 134.851a2.042 2.042 0 0 1 1.782-.404c.099.02.751.265.429.107.17.085.333.182.489.291-.284-.195-.067-.039.068.1.136.14.301.487.023 0 .058.101.129.196.188.298.015.025.264.582.131.236.157.426.275.865.353 1.312.04.125.058.256.053.388.018.247.037.495.045.743.016.541 0 1.083-.049 1.622a12.91 12.91 0 0 1-1.435 4.386c-.886 1.623-2.12 3.169-4.042 2.913a2.158 2.158 0 0 0-2.148 2.148 2.203 2.203 0 0 0 2.148 2.147c4.929.654 7.997-4.638 9.242-8.625 1.129-3.614 1.031-9.127-2.486-11.431a6.564 6.564 0 0 0-7.824.73 2.143 2.143 0 0 0 .026 3.01 2.145 2.145 0 0 0 3.01.027l-.003.002Z" fill="#211715"/><path d="M199.387 146.45a26.405 26.405 0 0 1-1.2 3.959l-.183.465c.071-.17.062-.149-.029.061-.108.25-.236.493-.322.752.257-.526-.101.305 0 0-.058.119-.108.24-.169.36a33.728 33.728 0 0 1-2.917 4.823c-2.48 3.494-6.019 7.366-10.256 8.349-2.691.625-1.552 4.766 1.142 4.141 5.334-1.237 9.439-5.669 12.539-9.927a34.603 34.603 0 0 0 3.169-5.154c.202-.413.378-.834.557-1.259.215-.52-.203.437.042-.089.157-.336.293-.683.429-1.026a26.438 26.438 0 0 0 1.338-4.312 2.196 2.196 0 0 0-1.503-2.641 2.17 2.17 0 0 0-2.643 1.503l.006-.005ZM147.605 147.35c2.246 9.986 9.751 20.88 20.525 22.538a2.215 2.215 0 0 0 2.642-1.504 2.164 2.164 0 0 0-1.503-2.641c-9.388-1.444-15.57-10.87-17.526-19.543-.605-2.696-4.748-1.554-4.141 1.142l.003.008ZM172.27 112.378c.084-.429.211-.849.378-1.254l-.215.513a7.525 7.525 0 0 1 .944-1.617l-.335.43a8.195 8.195 0 0 1 1.424-1.429l-.435.336a8.543 8.543 0 0 1 1.063-.704 2.151 2.151 0 0 0 1.044-2.146 2.13 2.13 0 0 0-.274-.792 2.147 2.147 0 0 0-2.938-.771 9.649 9.649 0 0 0-4.801 6.296 2.297 2.297 0 0 0 .215 1.655 2.139 2.139 0 0 0 1.309.994 2.148 2.148 0 0 0 1.63-.223c.486-.283.84-.746.986-1.289l.005.001ZM179.614 114.708c.245-.23.496-.455.751-.667l.199-.159c-.44.379-.193.149-.081.066a14.421 14.421 0 0 1 2.735-1.572c.265-.119-.066.037-.152.065.082-.027.162-.067.243-.098a14.804 14.804 0 0 1 3.159-.847c.54-.149 1-.503 1.283-.987a2.194 2.194 0 0 0 .215-1.655 2.168 2.168 0 0 0-.987-1.288 2.476 2.476 0 0 0-1.655-.215 16.634 16.634 0 0 0-8.753 4.322 2.162 2.162 0 0 0 0 3.036 2.188 2.188 0 0 0 3.036 0l.007-.001Z" fill="#211715"/><path d="M208.914 131.213a33.59 33.59 0 0 0-2.32-24.445 23.303 23.303 0 0 0-8.354-9.128 8.955 8.955 0 0 1-2.111-1.55 15.16 15.16 0 0 0-1.924-1.77 20.181 20.181 0 0 0-4.888-2.768c-7.028-2.874-15.13-2.521-22.375-.707-7.755 1.945-14.991 6.148-19.307 13.037-4.903 7.821-6.141 17.749-4.434 26.717.515 2.712 4.656 1.564 4.141-1.142a33.848 33.848 0 0 1 2.649-20.989c3.193-6.436 8.883-10.64 15.655-12.795 6.336-2.015 13.383-2.719 19.852-.905a15.457 15.457 0 0 1 7.709 4.483c1.221 1.414 3.081 2.098 4.568 3.212a16.462 16.462 0 0 1 3.534 3.871c4.775 6.928 5.633 15.73 3.463 23.731-.724 2.67 3.419 3.811 4.142 1.141v.007Z" fill="#211715"/><path d="M149.99 134.871a6.371 6.371 0 0 0 4.197-3.98 24.8 24.8 0 0 0 .624-2.757c.238-1.033.512-2.057.835-3.066 1.092-3.411 2.845-6.436 6.028-7.996a2.171 2.171 0 0 0 .77-2.939 2.192 2.192 0 0 0-2.938-.77c-3.553 1.742-5.833 5.015-7.291 8.59a34.216 34.216 0 0 0-1.701 5.755 7.789 7.789 0 0 1-.628 2.299c-.028.044-.313.355-.305.35a3.538 3.538 0 0 1-.458.275c-.389.199.179-.049-.27.097-2.618.851-1.497 5 1.142 4.142h-.005ZM360.401 215.372a91.896 91.896 0 0 0-5.62-12.197c-1.848-3.221-5.205-5.395-8.225-7.44-3.437-2.324-7.009-4.431-10.53-6.62a54.21 54.21 0 0 1-8.409-5.919c-2.026-1.876-5.07 1.155-3.038 3.037 5.43 5.028 12.399 8.34 18.55 12.373 1.461.958 2.914 1.933 4.295 3.007a12.83 12.83 0 0 1 3.461 3.409 83.633 83.633 0 0 1 5.369 11.49 2.21 2.21 0 0 0 2.642 1.503 2.163 2.163 0 0 0 1.503-2.641l.002-.002Z" fill="#211715"/><path d="M359.848 217.46c2.015-1.707 5.527-2.43 7.194.152 1.513 2.345 1.023 5.406.215 7.898-1.693 5.216-6.108 8.21-11.201 9.632-2.659.743-1.529 4.889 1.141 4.143 5.46-1.526 10.524-4.655 13.086-9.885a17.761 17.761 0 0 0 2.007-8.591c-.19-3.214-1.509-6.682-4.538-8.224-3.752-1.909-7.877-.759-10.939 1.836a2.163 2.163 0 0 0 0 3.037 2.191 2.191 0 0 0 3.037 0l-.002.002ZM324.953 207.112c-.893 1.852-1.271 6.386 2.164 7.34 4.629.73 5.78-4.638 4.65-7.437-.927-2.291-4.53-3.772-6.814.097Z" fill="#211715"/><path d="M348.288 264.613a58.651 58.651 0 0 0-2.131-5.46 69.904 69.904 0 0 0-.795-1.711c-.075-.155-.142-.322-.228-.469-.226-.39.292.716-.041-.072-1.665-3.949-5.988-2.297-9.298-2.487a29.306 29.306 0 0 1-10.271-2.456 11.302 11.302 0 0 1-5.939-6.79 40.852 40.852 0 0 1-1.776-11.989 14.54 14.54 0 0 0-.721-5.212 14.37 14.37 0 0 0-3.015-4.526c-.727-.783-1.736-1.649-1.33-2.811.537-1.532 2.282-1.933 3.507-2.711a14.383 14.383 0 0 0 5.399-7.1c2.9-7.286 1.933-15.356 3.79-22.86.662-2.685-3.478-3.83-4.142-1.143-1.698 6.881-1.093 14.093-3.114 20.906-.741 2.491-1.933 5.161-4.234 6.572-1.528.935-3.046 1.542-4.188 3.017a6.188 6.188 0 0 0-1.288 5.154c.786 3.311 4.486 4.86 4.998 8.336.251 1.706.064 3.568.193 5.298.152 2.166.425 4.322.818 6.458a19.605 19.605 0 0 0 4.882 10.308c2.41 2.451 5.713 3.715 8.966 4.608a31.31 31.31 0 0 0 12.216 1.027c.723-.093.454-.277.787.458.165.365.35.722.521 1.085a49.905 49.905 0 0 1 2.287 5.712c.859 2.612 5.013 1.493 4.142-1.142h.005Z" fill="#211715"/><path d="M325.033 189.649a35.391 35.391 0 0 1 6.209-16.043c.093-.129.187-.255.28-.383.226-.307.13-.173.145-.191a35.228 35.228 0 0 1 3.107-3.428 37.559 37.559 0 0 1 6.607-5.101 50.067 50.067 0 0 1 22.484-6.73 47.431 47.431 0 0 1 18.725 2.325c12.4 4.206 22.176 15.061 26.898 27.125a47.981 47.981 0 0 1 3.013 24.781 49.466 49.466 0 0 1-7.712 19.7 59.067 59.067 0 0 1-11.001 12.067 46.676 46.676 0 0 0-7.676 7.764 12.982 12.982 0 0 0-2.479 8.766c.087 1.682.263 3.358.527 5.022a2.164 2.164 0 0 0 2.642 1.503 2.204 2.204 0 0 0 1.503-2.642 36.793 36.793 0 0 1-.415-4.939 5.983 5.983 0 0 1 .703-3.553c1.61-3.212 4.542-5.683 7.208-7.998a69.704 69.704 0 0 0 12.134-12.982 52.161 52.161 0 0 0 6.477-46.512c-4.704-13.723-14.969-26.058-28.605-31.482a49.012 49.012 0 0 0-17.504-3.385 57.617 57.617 0 0 0-25.632 5.559 38.754 38.754 0 0 0-20.796 24.572 49.74 49.74 0 0 0-1.137 6.186 2.155 2.155 0 0 0 2.148 2.147 2.202 2.202 0 0 0 2.147-2.148ZM323.103 231.558c-.617.194-1.238.372-1.868.519-.334.078-.669.148-1.006.208-.144.026-.286.047-.429.071-.446.073.494-.055-.073.01-.61.07-1.225.099-1.839.087-.302-.007-.601-.034-.903-.055-.464-.034.445.08.022.006-.182-.032-.362-.062-.542-.1a2.157 2.157 0 0 0-2.266.751 2.134 2.134 0 0 0-.438 1.585 2.163 2.163 0 0 0 .812 1.43c.223.173.477.301.749.376 2.99.516 6.062.257 8.923-.752a2.141 2.141 0 0 0 1.297-1.01 2.144 2.144 0 0 0-2.438-3.131l-.001.005Z" fill="#211715"/><path d="M362.526 234.512c1.101 4.848 3.993 9.431 6.963 13.342a43.523 43.523 0 0 0 5.352 6.004c1.116 1.012 2.334 1.909 3.525 2.831a2.222 2.222 0 0 0 3.038 0 2.162 2.162 0 0 0 0-3.038 43.79 43.79 0 0 1-8.207-7.971c-2.775-3.624-5.513-7.839-6.529-12.316-.612-2.694-4.754-1.554-4.142 1.142v.006Z" fill="#211715"/><path d="M428.443 385.12c2.541-16.268 2.013-63.371.537-73.392a80.012 80.012 0 0 0-4.31-18.141c-5.248-13.19-14.419-19.471-28.18-26.573-3.328-5.674-8.088-10.326-11.14-10.231-3.385.107-14.086 2.147-21.879 4.288-7.098 1.953-15.655 6.765-18.706 9.354-1.641 1.396-3.282 5.698-4.194 7.872l-.71 1.695c-1.164.522-2.331 1.07-3.501 1.644-9.208 4.496-15.01 9.85-19.32 19.339-5.033 11.084-9.402 30.957-12.975 46.621a201.578 201.578 0 0 1-6.406 22.842s7.829 15.904 49.846 21.63c42.017 5.727 80.938-6.948 80.938-6.948Z" fill="#12FF0F"/><path d="M49.148 338.168c12.954-1.151 25.917-2.206 38.88-3.256 17.354-1.405 34.712-2.786 52.071-4.144 18.74-1.474 37.481-2.94 56.223-4.396 16.698-1.3 33.396-2.603 50.095-3.909 11.634-.913 23.267-1.841 34.898-2.784l2.709-.226c2.735-.23 2.759-4.527 0-4.296-10.782.909-21.571 1.75-32.358 2.598-16.245 1.278-32.49 2.547-48.736 3.808-18.677 1.454-37.354 2.913-56.03 4.375a31561.044 31561.044 0 0 0-53.046 4.209c-13.681 1.101-27.364 2.211-41.037 3.402l-3.668.323A2.205 2.205 0 0 0 47 336.019a2.166 2.166 0 0 0 2.148 2.148l-.002.001ZM335.365 388.858a78.633 78.633 0 0 0 4.42-9.192 74.58 74.58 0 0 0 2.976-10.975c1.733-7.655 3.405-15.38 3.832-23.238.149-2.763-4.146-2.755-4.295 0-.406 7.475-2.031 14.818-3.679 22.095a77.385 77.385 0 0 1-2.719 10.309 68.084 68.084 0 0 1-4.244 8.83c-1.337 2.422 2.371 4.591 3.709 2.168v.003ZM388.361 266.166c-14.431 1.482-28.849 3.744-42.449 8.973a135.105 135.105 0 0 0-10.63 4.642c-2.485 1.209-.31 4.915 2.168 3.709a130.92 130.92 0 0 1 37.647-11.37c4.403-.68 8.833-1.203 13.268-1.659a2.21 2.21 0 0 0 2.148-2.148 2.163 2.163 0 0 0-2.148-2.147h-.004Z" fill="#211715"/><path d="M398.003 265.35c-2.48-4.002-6.049-8.953-10.778-10.432a10.712 10.712 0 0 0-4.64-.01c-2.241.296-4.469.681-6.69 1.107a113.135 113.135 0 0 0-15.355 3.721 65.386 65.386 0 0 0-13.859 6.691 15.238 15.238 0 0 0-4.891 4.283 42.311 42.311 0 0 0-3.284 7.016 2.162 2.162 0 0 0 1.503 2.643 2.207 2.207 0 0 0 2.642-1.504 45.077 45.077 0 0 1 2.483-5.392 8.6 8.6 0 0 1 3.16-2.978 60.98 60.98 0 0 1 11.984-6.114 92.416 92.416 0 0 1 13.699-3.612 72.55 72.55 0 0 1 11.026-1.826 2.404 2.404 0 0 1 1.472.263 9.892 9.892 0 0 1 2.485 1.727 29.635 29.635 0 0 1 5.338 6.582c1.453 2.345 5.171.19 3.709-2.168l-.004.003ZM327.41 304.69a25.656 25.656 0 0 1 7.302 2.708 19.909 19.909 0 0 1 5.353 4.51 23.4 23.4 0 0 1 5.379 11.64 2.17 2.17 0 0 0 2.641 1.504 2.194 2.194 0 0 0 1.504-2.642 27.598 27.598 0 0 0-6.483-13.53 26.207 26.207 0 0 0-14.556-8.329 2.197 2.197 0 0 0-2.642 1.503 2.172 2.172 0 0 0 1.504 2.642l-.002-.006ZM400.374 271.517c8.244 4.602 15.822 10.147 20.36 18.639a56.32 56.32 0 0 1 5.298 16.653c.27 1.492.51 2.99.735 4.49.028.185.238 1.728.138.91.027.223.055.447.08.67a80.03 80.03 0 0 1 .287 3.207c1.104 15.156 1.003 30.487.603 45.667-.113 4.328-.279 8.657-.555 12.978a172.08 172.08 0 0 1-.44 5.6c-.077.795-.161 1.591-.257 2.386-.017.145-.137 1.085-.082.676a56.43 56.43 0 0 1-.168 1.156 2.22 2.22 0 0 0 1.504 2.642 2.16 2.16 0 0 0 1.629-.21 2.16 2.16 0 0 0 1.013-1.293 174.52 174.52 0 0 0 1.564-20.832c.288-8.731.342-17.473.248-26.208-.173-15.965.081-33.18-6.589-48.026a41.298 41.298 0 0 0-9.253-13.045 68.65 68.65 0 0 0-13.942-9.772c-2.416-1.348-4.584 2.363-2.168 3.709l-.005.003Z" fill="#211715"/><path d="M366.619 412.242c.656-13.84 2.166-27.632 3.078-40.662.372-5.317 3.551-10.006 8.672-11.484 15.207-4.388 37.354-10.845 52.652-15.297 5.968-1.736 12.365 2.792 11.886 8.987-1.48 19.193-1.678 26.581-2.644 40.653" fill="#fff"/><path d="M368.767 412.242c.644-13.412 2.051-26.772 3.042-40.16.347-4.681 2.851-8.659 7.485-10.018 4.983-1.459 9.975-2.885 14.959-4.333 10.843-3.149 21.682-6.303 32.519-9.461 2.204-.644 4.618-1.711 6.939-1.696a7.473 7.473 0 0 1 5.42 2.39c1.574 1.718 1.718 3.659 1.548 5.876a1265.3 1265.3 0 0 0-.652 8.939c-.708 10.215-1.212 20.444-1.911 30.66-.189 2.759 4.106 2.747 4.295 0 .652-9.525 1.127-19.061 1.77-28.586.206-3.079.426-6.154.658-9.225.221-2.946.429-5.63-.967-8.34a11.752 11.752 0 0 0-13.06-5.657c-5.36 1.303-10.647 3.089-15.943 4.631l-17.491 5.09a17815.51 17815.51 0 0 1-16.672 4.832c-2.577.751-5.133 1.396-7.312 3.048a14.513 14.513 0 0 0-4.638 6.095c-1.289 3.114-1.282 6.482-1.541 9.79-.308 3.946-.644 7.889-.987 11.833-.691 8.088-1.362 16.18-1.753 24.29-.133 2.762 4.162 2.756 4.295 0l-.003.002ZM335.28 279.781a42.183 42.183 0 0 0-14.462 10.922c-3.89 4.805-6.387 10.416-8.41 16.214-4.6 13.183-7.401 26.973-10.512 40.56a233.343 233.343 0 0 1-6.303 22.392c-.885 2.625 3.262 3.752 4.141 1.141 4.385-13.018 7.101-26.391 10.309-39.724 1.611-6.676 3.303-13.342 5.392-19.886 1.768-5.537 3.8-11.06 7.11-15.892 3.725-5.427 9.064-9.149 14.901-12.026 2.481-1.22.306-4.926-2.168-3.709l.002.008ZM195.036 264.069c-.546 2.117-1.12 4.229-1.642 6.352a4.659 4.659 0 0 0 1.257 4.855c1.956 1.731 4.195 3.206 6.248 4.825.884.696 1.771 1.391 2.628 2.12.53.451.502.377.515 1.013 0 .264-.26.348 0 .287s-.322.023-.439.031c-1.825.142-3.651.257-5.471.379-15.414 1.031-30.832 2.004-46.246 3.037-2.44.163-4.732.294-6.792-1.283a61.277 61.277 0 0 1-5.777-5.686 11.561 11.561 0 0 1-2.182-2.248c-.322-.651.201-1.786.372-2.464.545-2.177 1.106-4.351 1.61-6.537.626-2.684-3.513-3.837-4.141-1.141-.469 2.011-.983 4.011-1.485 6.013-.561 2.236-1.322 4.539.15 6.601a44.503 44.503 0 0 0 5.063 5.238c1.825 1.819 3.577 3.856 5.979 4.925a14.81 14.81 0 0 0 7.362.864 14947.733 14947.733 0 0 1 19.644-1.295l24.352-1.592c2.334-.155 4.668-.306 7.002-.476a10.015 10.015 0 0 0 2.273-.286 4.655 4.655 0 0 0 3.013-4.756c-.108-2.606-2.018-3.896-3.883-5.378-1.228-.975-2.47-1.933-3.71-2.892a212.41 212.41 0 0 0-1.94-1.49c-.303-.233-1.308-.81-1.373-1.134a4.64 4.64 0 0 1 .229-.852l.582-2.255.94-3.635c.692-2.677-3.449-3.82-4.142-1.142l.004.002ZM216.738 93.236l3.264-3.884c.391-.412.616-.953.631-1.52a2.189 2.189 0 0 0-.629-1.52 2.158 2.158 0 0 0-2.341-.468 2.107 2.107 0 0 0-.696.468l-3.266 3.882c-.39.411-.614.952-.63 1.518.004.569.23 1.114.63 1.52a2.162 2.162 0 0 0 2.341.467c.261-.108.498-.267.696-.468v.005ZM223.835 110.488l5.584-.123a2.24 2.24 0 0 0 1.523-.628 2.152 2.152 0 0 0 .465-2.34 2.143 2.143 0 0 0-1.984-1.326l-5.583.123a2.238 2.238 0 0 0-1.519.628 2.154 2.154 0 0 0-.466 2.341 2.145 2.145 0 0 0 1.985 1.326l-.005-.001ZM242.658 242.84c-16.333.943-32.665 1.874-48.999 2.792-22.27 1.27-44.539 2.556-66.807 3.857a21778.82 21778.82 0 0 0-40.337 2.401c-2.746.166-2.765 4.462 0 4.296 23.646-1.432 47.294-2.828 70.942-4.188 20.225-1.167 40.451-2.324 60.679-3.47 8.175-.464 16.349-.931 24.522-1.401 2.748-.159 2.766-4.455 0-4.295v.008Z" fill="#211715"/><path d="M147.419 252.844c-2.89 1.959-6.105 3.695-9.64 3.817a11.73 11.73 0 0 1-11.617-9.355c-.868-5.191 2.255-9.579 7.803-11.605 3.073-.67 8.323-1.959 10.907-2.087 2.25-.107 4.832.188 5.914 2.055a4.16 4.16 0 0 1 .447 2.398 4.16 4.16 0 0 1-.971 2.237 6.526 6.526 0 0 1-4.522 2.177 14.35 14.35 0 0 1 3.851 2.812 4.439 4.439 0 0 1 1.083 4.303 6.69 6.69 0 0 1-2.708 2.873c-.181.126-.363.251-.547.375Z" fill="#fff"/><path d="M146.336 250.991c-3.56 2.388-7.783 4.586-12.106 2.918a9.333 9.333 0 0 1-6.051-7.907c-.139-3.544 2.155-6.196 5.188-7.72a22.6 22.6 0 0 1 5.339-1.439 47.955 47.955 0 0 1 5.537-1.029c1.269-.126 4.001-.41 4.725 1.006.999 1.941-1.718 3.356-3.228 3.515-1.994.215-3.08 2.857-1.084 4.002 1.426.819 3.329 1.74 3.934 3.397.572 1.576-1.151 2.506-2.255 3.259-2.271 1.547-.124 5.271 2.168 3.708 2.594-1.77 5.003-3.897 4.403-7.361-.567-3.264-3.416-5.181-6.082-6.712l-1.084 4.002c2.945-.31 5.83-1.632 7.087-4.475a5.928 5.928 0 0 0-2.291-7.624c-2.27-1.3-5.079-1.2-7.58-.852-2.594.362-5.154.967-7.704 1.539-4.948 1.116-9.641 4.274-11.002 9.431-1.402 5.32 1.214 10.659 5.564 13.735a13.246 13.246 0 0 0 8.805 2.369 21.799 21.799 0 0 0 9.879-4.05c2.29-1.537.142-5.259-2.162-3.712Z" fill="#211715"/><path d="m163.888 206.502-.23-.781a1.266 1.266 0 0 1 .099-.974 1.27 1.27 0 0 1 .76-.618c9.475-2.81 28.633-7.795 37.566-10.16a1.287 1.287 0 0 1 1.553.868c3.658 11.779 6.82 22.383 8.185 26.436l6.275 21.681-13.388 3.973c-4.389 1.264-19.591 5.334-25.941 6.837a1.286 1.286 0 0 1-1.532-.886c-2.484-8.479-10.489-36.644-13.347-46.376Z" fill="#fff"/><path d="M213.897 220.703c-1.742-5.195-3.276-10.464-4.879-15.702-.533-1.738-1.066-3.476-1.6-5.212a41.397 41.397 0 0 0-1.923-6.035c-1.479-3.007-4.739-1.654-7.209-1.003-10.922 2.879-21.868 5.691-32.718 8.833-1.281.372-2.669.636-3.473 1.812a4.082 4.082 0 0 0-.266 3.723c.488 1.661.971 3.321 1.45 4.983a4547.9 4547.9 0 0 1 4.074 14.174c2.536 8.848 5.047 17.704 7.624 26.538a3.8 3.8 0 0 0 2.888 3.062c1.262.252 2.727-.334 3.952-.644a695.769 695.769 0 0 0 8.412-2.161c5.026-1.32 10.055-2.638 15.051-4.071 2.651-.762 1.523-4.908-1.143-4.142-3.946 1.133-7.917 2.182-11.885 3.235a989.443 989.443 0 0 1-7.614 1.992c-1.036.267-2.074.532-3.114.793-.989.106-1.959.345-2.884.71-.777.494 1.033-.127.618.565a1.8 1.8 0 0 0-.094-.322 4.101 4.101 0 0 0-.255-.873l-.685-2.362c-.531-1.837-1.061-3.675-1.589-5.514a16237.28 16237.28 0 0 1-3.905-13.619 7043.804 7043.804 0 0 0-6.294-21.859 9.96 9.96 0 0 0-.626-2.139c-.035-.058-.046-.294-.094-.322.859.437-1.175 1.207.154.817a316.818 316.818 0 0 1 4.828-1.374c2.548-.715 5.1-1.416 7.654-2.101a2078.332 2078.332 0 0 1 16.075-4.28l7.345-1.933c.216-.032.427-.088.631-.168.056-.249-.173-.311-.686-.184l.237.763.931 3.014c.591 1.918 1.18 3.837 1.768 5.757 1.675 5.468 3.272 10.968 5.09 16.39.874 2.608 5.025 1.49 4.142-1.141h.012Z" fill="#211715"/><path d="M215.891 255.176a8.41 8.41 0 0 1-3.629-.768 7.899 7.899 0 0 1-2.443-1.646 8.329 8.329 0 0 1-2.114-4.341 10.218 10.218 0 0 1-.393-3.879c-1.653-.737-2.737-1.357-3.488-1.688a6.721 6.721 0 0 1-2.85-2.04 4.079 4.079 0 0 1-.752-2.638 8.036 8.036 0 0 1 .676-2.518 13.513 13.513 0 0 1-1.861-1.556c-.925-1.939.177-5.251 1.048-6.628a3.031 3.031 0 0 1 2.326-1.564 3.671 3.671 0 0 1 1.894.119 57.18 57.18 0 0 1 9.962 4.451c-.722-2.061-1.9-5.369-2.51-7.44a5.461 5.461 0 0 1-.174-1.768 1.147 1.147 0 0 1 1.209-.925 6.477 6.477 0 0 1 2.316.322c1.726.874 3.686 3.279 4.982 5.402a21.45 21.45 0 0 1 3.176 8.336c.27 2.498.28 5.017.03 7.516-.491 2.792-.537 4.467-1.278 7.463a9.104 9.104 0 0 1-1.654 3.765 5.938 5.938 0 0 1-3.814 1.978c-.222.026-.44.041-.659.047Z" fill="#fff"/><path d="M214.862 228.362a65.486 65.486 0 0 0-8.089-3.733 8.812 8.812 0 0 0-4.78-.814 5.192 5.192 0 0 0-3.144 1.728 10.867 10.867 0 0 0-2.302 7.157 4.688 4.688 0 0 0 1.288 3.268 20.89 20.89 0 0 0 1.975 1.545l-.771-2.938c-1.297 2.757-1.413 6.035.898 8.313a11.252 11.252 0 0 0 3.2 2.006c1.103.53 2.186 1.1 3.306 1.598a2.217 2.217 0 0 0 2.938-.771 2.163 2.163 0 0 0-.77-2.937 48.117 48.117 0 0 1-4.897-2.386 2.49 2.49 0 0 1-1.329-1.579 1.925 1.925 0 0 1 .049-.982c.052-.233.108-.465.181-.693.02-.068.279-.71.133-.401a2.226 2.226 0 0 0-.77-2.939 68.718 68.718 0 0 1-.43-.322c-.06-.045-.381-.301-.091-.069-.129-.103-.257-.205-.382-.311a3.08 3.08 0 0 0-.322-.282c-.372-.233.266.24.178.273a3.404 3.404 0 0 1-.107-.915 7.882 7.882 0 0 1 .527-2.439 5.29 5.29 0 0 1 .818-1.496c.215-.215-.023-.056.31-.146.3-.104.621-.135.935-.089 1.127.278 2.224.669 3.273 1.169a58.758 58.758 0 0 1 6 2.89c2.433 1.312 4.604-2.395 2.168-3.709l.007.004Z" fill="#211715"/><path d="M215.849 228.537c-.664-1.898-1.356-3.795-1.923-5.726a8.082 8.082 0 0 0-.215-.936c-.02-.048.034-.337-.006-.358l-.458.49c-.582.388-.658.549-.227.481.511.244 1.065.035 1.585.378a13.622 13.622 0 0 1 3.627 4.286 21.143 21.143 0 0 1 2.506 5.598c.973 3.628.61 7.452.1 11.114-.43 3.063-.557 8.54-4.466 9.127-4.805.729-7.203-4.201-6.93-8.248.185-2.758-4.11-2.748-4.295 0-.374 5.54 2.726 11.147 8.403 12.336a8.728 8.728 0 0 0 8.061-2.12c1.964-2.008 2.577-4.98 3.027-7.653.867-5.085 1.591-10.399.296-15.486a25.107 25.107 0 0 0-3.449-7.556c-1.396-2.107-3.328-4.777-5.809-5.673-2.407-.87-5.994-.469-6.244 2.678a9.928 9.928 0 0 0 .709 3.807c.498 1.541 1.033 3.071 1.567 4.6.907 2.592 5.058 1.476 4.142-1.143l-.001.004ZM221.667 101.196c2.183-1.295 4.438-2.47 6.664-3.686a2.136 2.136 0 0 0 .994-1.31 2.164 2.164 0 0 0-.224-1.628 2.139 2.139 0 0 0-1.309-.994 2.149 2.149 0 0 0-1.629.224c-2.226 1.22-4.481 2.39-6.664 3.686a2.152 2.152 0 0 0-1.002 1.31 2.158 2.158 0 0 0 .222 1.633 2.144 2.144 0 0 0 1.315.995 2.143 2.143 0 0 0 1.633-.23Z" fill="#211715"/><path d="M99.931 150.976c1.011-.584 1.295-1.997.712-3.014-.583-1.017-1.947-1.487-2.966-.903l-12.926 7.738-.006.003c-.848.49-1.394 1.251-1.118 2.192l4.347 15.035-7.935-4.022a2.124 2.124 0 0 0-1.92 3.787l12.316 6.244c.646.328 1.407.3 2.022-.055.104-.06.237-.067.33-.145.652-.543.953-1.359.716-2.173L88.3 157.838l11.625-6.859.006-.003Z" fill="url(#eg)"/><path d="m99.98 152.274-3.525 2.035-2.294 12.955 1.907 3.303 7.328-4.23 1.566 2.713 3.527-2.037-1.566-2.713 1.809-1.044-1.802-3.12-1.808 1.044-5.142-8.906Zm1.614 10.943-3.868 2.233 1.242-6.782 2.626 4.549Z" fill="url(#eh)"/><g clip-path="url(#ei)"><path d="M232.646 147.055a3.806 3.806 0 0 0-4.661 2.691l-5.911 22.061a3.806 3.806 0 0 0 2.691 4.661l16.545 4.434a3.806 3.806 0 0 0 4.662-2.692l5.911-22.06a3.806 3.806 0 0 0-2.692-4.662l-16.545-4.433Zm.493-1.838 16.545 4.433a5.71 5.71 0 0 1 4.037 6.993l-5.911 22.06a5.71 5.71 0 0 1-6.992 4.037l-16.545-4.433a5.71 5.71 0 0 1-4.038-6.993l5.911-22.06a5.709 5.709 0 0 1 6.993-4.037Zm.361 6.007a1.903 1.903 0 0 0-2.331 1.346l-.493 1.838a1.903 1.903 0 0 0 1.346 2.331l12.868 3.448a1.903 1.903 0 0 0 2.331-1.345l.493-1.839a1.904 1.904 0 0 0-1.346-2.331l-12.868-3.448Zm.492-1.838 12.869 3.448a3.807 3.807 0 0 1 2.691 4.662l-.493 1.838a3.806 3.806 0 0 1-4.661 2.692l-12.869-3.448a3.807 3.807 0 0 1-2.691-4.662l.492-1.839a3.807 3.807 0 0 1 4.662-2.691Zm-4.794 10.537 1.839.493a1.902 1.902 0 0 1-.985 3.677l-1.839-.493a1.904 1.904 0 0 1 .985-3.677Zm7.354 1.971 1.838.492a1.904 1.904 0 0 1-.985 3.677l-1.838-.493a1.903 1.903 0 1 1 .985-3.676Zm7.353 1.97 1.838.493a1.902 1.902 0 1 1-.985 3.676l-1.838-.492a1.904 1.904 0 0 1 .985-3.677Zm-16.184 1.574 1.838.493a1.904 1.904 0 0 1-.985 3.677l-1.839-.493a1.903 1.903 0 0 1 .986-3.677Zm7.353 1.971 1.838.492a1.903 1.903 0 1 1-.985 3.677l-1.838-.493a1.903 1.903 0 1 1 .985-3.676Zm7.353 1.97 1.839.493a1.902 1.902 0 1 1-.985 3.676l-1.839-.492a1.904 1.904 0 0 1 .985-3.677Zm-16.184 1.574 1.838.493a1.903 1.903 0 1 1-.985 3.677l-1.838-.493a1.903 1.903 0 1 1 .985-3.677Zm7.353 1.971 1.839.492a1.903 1.903 0 0 1-.986 3.677l-1.838-.493a1.903 1.903 0 1 1 .985-3.676Zm7.354 1.97 1.838.493a1.903 1.903 0 1 1-.985 3.676l-1.839-.492a1.903 1.903 0 0 1 .986-3.677Z" fill="url(#ej)"/></g><g filter="url(#ek)"><path fill-rule="evenodd" clip-rule="evenodd" d="m284.67 237.812-20.858-5.589-5.588 20.858 20.858 5.589 5.588-20.858Zm-17.165 8.442-3.477-.932-1.397 5.215 3.477.931 1.397-5.214Zm4.067-8.226 3.477.932-3.727 13.906-3.477-.932 3.727-13.906Zm7.294 7.543-3.477-.931-2.329 8.691 3.477.932 2.329-8.692Z" fill="url(#el)"/></g><g clip-path="url(#em)" filter="url(#en)"><path d="m295.071 213.762 1.432-5.313a3.502 3.502 0 0 0 3.419-2.585 3.51 3.51 0 0 0-2.478-4.294 3.491 3.491 0 0 0-2.672.361l-3.806-3.84a3.43 3.43 0 0 0 .386-.875c.423-1.578-.313-3.186-1.675-3.953l1.658-6.159a3.502 3.502 0 0 0 3.419-2.585 3.51 3.51 0 0 0-2.478-4.294 3.491 3.491 0 0 0-2.672.361l-3.806-3.84c.161-.27.301-.557.386-.875a3.509 3.509 0 0 0-2.479-4.293 3.508 3.508 0 0 0-4.293 2.479 3.474 3.474 0 0 0-.104.95l-5.215 1.422a3.49 3.49 0 0 0-2.134-1.647 3.508 3.508 0 0 0-4.293 2.478 3.5 3.5 0 0 0 1.665 3.947l-1.653 6.166c-1.558-.012-2.993 1.011-3.414 2.585a3.436 3.436 0 0 0-.104.95l-5.215 1.423a3.491 3.491 0 0 0-2.134-1.648 3.509 3.509 0 0 0-4.293 2.479c-.422 1.573.309 3.177 1.664 3.946l-1.425 5.319c-1.558-.011-2.993 1.012-3.415 2.586a3.51 3.51 0 0 0 2.479 4.293 3.492 3.492 0 0 0 2.671-.36l3.806 3.839c-.161.27-.3.557-.385.875a3.508 3.508 0 0 0 2.478 4.293 3.51 3.51 0 0 0 4.294-2.478c.085-.319.107-.638.104-.953l5.212-1.426a3.495 3.495 0 0 0 4.808 1.293l3.805 3.84c-.16.27-.3.556-.385.875a3.509 3.509 0 0 0 2.479 4.293 3.509 3.509 0 0 0 4.293-2.479c.086-.319.107-.638.104-.953l5.212-1.426a3.49 3.49 0 0 0 2.137 1.654 3.508 3.508 0 0 0 4.293-2.479c.423-1.577-.313-3.186-1.676-3.952Zm-22.007-5.903c-.105 0-.206.016-.309.025-.079.007-.16.006-.238.019-.199.03-.396.076-.584.14-.074.025-.142.062-.214.091-.121.05-.24.099-.354.162-.082.045-.157.098-.235.149a3.528 3.528 0 0 0-.283.201 3.362 3.362 0 0 0-.21.186 3.212 3.212 0 0 0-.247.261 3.35 3.35 0 0 0-.168.206c-.081.11-.152.228-.22.349-.037.064-.078.126-.111.194a3.554 3.554 0 0 0-.233.614 3.475 3.475 0 0 0-.096.593c-.007.081-.01.162-.012.243 0 .037-.007.075-.006.112l-5.205 1.424a3.497 3.497 0 0 0-4.805-1.287l-3.797-3.829c.024-.039.04-.081.062-.121a2.82 2.82 0 0 0 .097-.19 3.28 3.28 0 0 0 .218-.574c.059-.217.09-.435.106-.652.005-.07 0-.139.002-.209a3.295 3.295 0 0 0-.018-.434 3.053 3.053 0 0 0-.038-.236 3.491 3.491 0 0 0-.169-.616 3.536 3.536 0 0 0-.17-.37c-.034-.066-.064-.133-.103-.196a3.527 3.527 0 0 0-.282-.397c-.03-.036-.053-.075-.084-.111a3.495 3.495 0 0 0-.454-.431c-.047-.037-.1-.066-.149-.1-.099-.071-.195-.146-.302-.207l1.419-5.294c.123.002.244-.015.365-.027.059-.006.12-.004.178-.013.208-.031.412-.079.609-.147.045-.014.085-.037.128-.054.153-.058.301-.123.444-.202.065-.036.124-.078.186-.118a3.227 3.227 0 0 0 .512-.395c.098-.091.188-.188.275-.29.052-.061.103-.121.151-.185a3.39 3.39 0 0 0 .232-.367c.034-.062.073-.119.103-.182.095-.196.176-.4.235-.618a3.464 3.464 0 0 0 .109-.819c.001-.045.007-.089.006-.135l5.203-1.419a3.494 3.494 0 0 0 2.861 1.761c.072.003.142-.008.213-.009.171-.001.341-.006.506-.031.077-.013.151-.037.226-.055.16-.036.319-.076.472-.134.064-.024.125-.057.188-.086a3.43 3.43 0 0 0 .471-.252c.018-.011.038-.017.056-.03l1.859 1.649 1.867 1.656c-.11.215-.201.444-.266.687-.058.217-.09.435-.107.651-.004.071 0 .141 0 .212a3.39 3.39 0 0 0 .016.429c.009.082.024.162.039.242a3.752 3.752 0 0 0 .171.616c.046.124.103.241.163.359.036.069.068.139.109.206.081.134.174.261.273.383.033.041.058.085.092.123.137.156.289.299.452.43.048.037.102.067.151.103.098.069.192.143.298.203l-1.654 6.143Zm4.29-12.579a3.542 3.542 0 0 0-.727-.113c-.072-.003-.143.008-.215.008-.17.002-.339.007-.505.032-.076.012-.149.037-.226.055-.16.036-.318.076-.47.134-.066.024-.126.057-.189.086a3.49 3.49 0 0 0-.471.252c-.018.011-.039.018-.056.03l-1.859-1.649-1.867-1.656c.11-.215.202-.444.267-.687.058-.217.089-.435.106-.652.005-.07 0-.139.001-.209a3.477 3.477 0 0 0-.017-.434c-.009-.08-.024-.158-.038-.236a3.733 3.733 0 0 0-.17-.616 3.529 3.529 0 0 0-.169-.37c-.035-.066-.065-.133-.103-.196a3.668 3.668 0 0 0-.283-.397c-.03-.036-.052-.075-.084-.111a3.433 3.433 0 0 0-.454-.431c-.046-.037-.099-.066-.148-.1-.099-.071-.195-.146-.302-.207l1.645-6.14c.123.001.244-.016.365-.028.059-.005.12-.004.178-.012.208-.032.413-.08.61-.147.044-.015.084-.038.127-.054a3.42 3.42 0 0 0 .444-.203c.065-.036.124-.078.186-.117a3.387 3.387 0 0 0 .787-.685c.052-.062.104-.121.152-.185.085-.116.16-.24.231-.367.034-.062.073-.119.104-.182.094-.196.176-.4.234-.618a3.846 3.846 0 0 0 .109-.819c.001-.045.007-.09.006-.135l5.203-1.419a3.497 3.497 0 0 0 4.806 1.288l3.797 3.83c-.023.039-.04.081-.062.12a4.236 4.236 0 0 0-.097.19 3.361 3.361 0 0 0-.218.574 3.52 3.52 0 0 0-.106.651c-.005.072-.001.142-.001.212a3.39 3.39 0 0 0 .017.429c.008.083.024.162.038.242a4.045 4.045 0 0 0 .171.616c.047.124.103.241.163.359.036.069.068.139.109.206.081.134.175.261.273.384.033.04.058.084.093.122.137.156.288.299.451.43.049.037.102.067.152.103.097.07.192.143.297.203l-1.654 6.144c-.104-.001-.206.015-.309.024-.079.007-.159.006-.238.019-.199.03-.395.076-.584.14-.074.025-.142.062-.214.091-.12.05-.24.1-.354.162-.081.045-.156.098-.234.149a3.037 3.037 0 0 0-.493.387c-.088.082-.169.17-.248.261a3.35 3.35 0 0 0-.168.206c-.081.11-.152.228-.22.349-.037.064-.078.126-.111.194a3.428 3.428 0 0 0-.345 1.338l-4.88 1.002c-.009-.019-.023-.035-.032-.053a3.77 3.77 0 0 0-.284-.456c-.04-.056-.076-.113-.12-.167a3.536 3.536 0 0 0-.341-.352c-.057-.052-.108-.11-.168-.159a3.285 3.285 0 0 0-.422-.28c-.062-.036-.117-.082-.18-.115a3.585 3.585 0 0 0-.686-.265Zm16.026 18.023c-.104 0-.206.016-.309.025-.079.007-.159.006-.238.018a3.501 3.501 0 0 0-.584.141c-.074.024-.142.061-.214.091a3.32 3.32 0 0 0-.354.162c-.081.044-.156.098-.235.149a3.717 3.717 0 0 0-.283.201 3.68 3.68 0 0 0-.625.653c-.081.11-.152.228-.22.348-.037.065-.078.126-.111.195a3.552 3.552 0 0 0-.232.614c-.052.193-.08.392-.096.592a3.352 3.352 0 0 0-.013.244c0 .037-.006.074-.005.112l-5.206 1.424a3.495 3.495 0 0 0-4.805-1.287l-3.797-3.83c.024-.039.041-.081.062-.12.034-.063.067-.125.097-.19.088-.185.165-.374.219-.574.058-.218.089-.435.105-.652.006-.07.001-.14.002-.209a3.47 3.47 0 0 0-.017-.434 3.518 3.518 0 0 0-.039-.236 3.439 3.439 0 0 0-.339-.987c-.034-.065-.064-.132-.103-.195a3.438 3.438 0 0 0-.282-.397c-.03-.036-.053-.076-.084-.111a3.43 3.43 0 0 0-.454-.431c-.047-.037-.099-.067-.148-.101-.099-.071-.196-.146-.303-.206l1.646-6.141c.123.002.243-.015.364-.027.06-.006.12-.004.179-.013.208-.031.412-.079.609-.147.045-.014.085-.037.128-.054.153-.058.301-.123.443-.202.066-.036.125-.078.187-.118a3.34 3.34 0 0 0 .787-.685c.052-.061.103-.121.151-.185a3.39 3.39 0 0 0 .232-.367c.034-.062.073-.118.103-.182.095-.196.176-.4.235-.617.065-.243.099-.487.112-.729l4.879-.999c.009.02.024.036.034.054.081.159.177.309.282.453.04.057.076.116.12.17.104.126.22.24.341.351.057.054.108.111.168.161.131.105.277.194.423.28.062.037.117.081.18.114a3.493 3.493 0 0 0 3.358-.094l3.797 3.83c-.023.039-.04.081-.062.12a4.236 4.236 0 0 0-.097.19 3.361 3.361 0 0 0-.218.574c-.058.217-.09.434-.106.65-.005.073 0 .144-.002.216a3.73 3.73 0 0 0 .017.424c.01.084.025.165.04.247a3.556 3.556 0 0 0 .171.616c.046.12.1.235.16.349.037.073.07.146.113.215.078.129.168.251.262.369.036.045.065.094.104.137.135.155.286.297.449.427.049.038.104.069.156.106.095.069.189.141.293.201l-1.427 5.297Z" fill="url(#eo)"/></g><g clip-path="url(#ep)"><path d="m109.107 199.048-8.689-7.756a1.165 1.165 0 0 0-1.602.056l-.268.277a1.083 1.083 0 0 0 .058 1.572l.188.167-20.918 21.569a4.706 4.706 0 0 0-1.347 3.478 4.726 4.726 0 0 0 1.601 3.374l1.055.942A5.036 5.036 0 0 0 82.547 224a5.06 5.06 0 0 0 3.618-1.517l20.996-21.649.134.119a1.164 1.164 0 0 0 1.602-.055l.268-.277a1.084 1.084 0 0 0-.058-1.573Zm-12.45 10.309-7.69-3.555 10.729-11.062 5.97 5.329-9.008 9.288Z" fill="url(#eq)"/></g><g filter="url(#er)"><path d="M102.602 102.561c1.457.39 3.008-.643 3.405-2.104.397-1.463-.421-3.14-1.886-3.538l-18.887-4.74-.008-.003c-1.224-.328-2.419-.132-3.026.981l-9.77 17.716-3.576-10.93a2.745 2.745 0 1 0-5.216 1.707l5.55 16.965a2.74 2.74 0 0 0 1.898 1.798c.15.04.278.155.435.169 1.092.099 2.112-.371 2.64-1.332l11.537-21.048 16.895 4.356.009.003Z" fill="url(#es)"/><path d="m101.46 103.792-5.082-1.362-13.937 9.745-1.276 4.763 10.563 2.83-1.048 3.911 5.086 1.363 1.048-3.911 2.608.699 1.205-4.499-2.607-.699 3.44-12.84Zm-8.526 11.478-5.577-1.495 7.334-5.064-1.757 6.559Z" fill="url(#et)"/></g><path fill-rule="evenodd" clip-rule="evenodd" d="m281.021 90.819-30.202 17.437 17.437 30.201 30.201-17.437-17.436-30.201Zm-9.962 29.242-5.035 2.907 4.359 7.55 5.035-2.907-4.359-7.55Zm-4.75-14.037 5.034-2.907 11.625 20.135-5.034 2.907-11.625-20.135Zm16.944.284-5.035 2.907 7.266 12.585 5.034-2.907-7.265-12.585Z" fill="url(#eu)"/><g filter="url(#ev)"><path d="M118.325 315.122c-.292 1.09-1.02 2.064-1.988 2.623-1.383.798-3.026.825-4.436-.02l-4.825-2.929c-1.112-.649-2.399-.643-3.396.025l-5.807 3.352c-1.107.639-1.755 1.751-1.75 3.038l.125 5.643c.056 1.535-.818 3.054-2.2 3.852-1.798 1.038-4.147.642-5.461-.996l-6.957-8.058c-1.852-2.249-2.568-5.246-1.808-8.082l.087-.327 2.195-5.138c-17.903-24.783-10.339-38.184-10.054-38.809a2.546 2.546 0 0 1 2.074-1.198c.712-.042 16.07.216 28.582 28.112l5.548.669.327.087c2.835.76 5.101 2.77 6.094 5.607l3.53 9.945c.232.88.354 1.731.12 2.604Zm-17.178-4.369c2.518-1.546 5.667-1.521 8.297.002l4.041 2.368-3.218-8.926c-.472-1.295-1.496-2.271-2.695-2.592l-6.668-.852c-.792-.095-1.577-.656-1.838-1.427-9.174-21.159-19.48-25.44-23.326-26.353l-.059.218c-1.081 4.034-2.09 15.218 11.218 33.159.508.721.63 1.572.317 2.306l-2.596 6.2c-.351 1.309-.018 2.683.897 3.63l6.122 7.25-.031-4.683c-.033-2.931 1.52-5.67 4.146-7.187l5.393-3.113ZM83.21 283.039a2.37 2.37 0 1 1-1.226 4.58 2.37 2.37 0 0 1 1.227-4.58Z" fill="url(#ew)"/></g></g><g clip-path="url(#ex)"><path d="M295.982 318.932c1.797 3.429 3.199 6.199 5.835 11.223-8.613 4.132-43.623 21.291-51.138 25.122a625.093 625.093 0 0 1-11.561-23.46c-6.472-13.858-12.962-27.677-19.122-41.646 16.27-7.568 44.428-18.583 50.212-20.868 3.175 6.258 10.689 20.985 15.675 30.775" fill="#fff"/><path d="M284.062 320.414c-1.29.72-2.647 1.457-4.029 2.181 1.196-4.326 2.453-8.663 3.668-11.786.036.025.056.037.056.037 1.147.706 6.424 5.021 7.207 5.497a153.984 153.984 0 0 1-6.902 4.071Z" fill="#fff"/><path d="M307.587 283.782c-.25.059-.481.181-.671.353-4.449 5.077-20.006 22.696-23.262 26.654.848.445 5.958 4.616 7.156 5.451l.105.074c7.568-8.577 14.958-17.132 22.62-25.842 1.245-1.586.052-3.533-1.648-5.011-1.614-1.405-3.25-1.946-4.3-1.679Z" fill="#74C66D"/><path d="m280.322 322.442-.289.151c.586-2.118 1.186-4.24 1.789-6.218 1.136.742 3.257 2.342 4.06 3.01a177.738 177.738 0 0 1-5.56 3.057Z" fill="#211715"/><path d="M295.145 319.421c1.956 3.735 3.877 7.489 5.835 11.223l.348-1.326a1096.575 1096.575 0 0 0-7.642 3.704c-3.774 1.838-7.546 3.68-11.316 5.528-4.166 2.04-8.33 4.083-12.492 6.129-3.79 1.864-7.578 3.732-11.363 5.604-2.581 1.278-5.164 2.556-7.734 3.857l-.592.3 1.326.348c-4.267-8.211-8.322-16.529-12.239-24.914-3.997-8.553-7.999-17.103-11.924-25.69a1307.114 1307.114 0 0 1-6.52-14.502l-.347 1.326c7.332-3.409 14.792-6.547 22.264-9.636a1418.346 1418.346 0 0 1 21.061-8.507 2702.92 2702.92 0 0 1 6.656-2.628l-1.095-.444c4.02 7.926 8.052 15.844 12.098 23.756l3.576 7.02c.566 1.112 2.239.132 1.674-.978-4.341-8.526-8.684-17.05-13.029-25.573-.883-1.734-1.764-3.469-2.645-5.204a.97.97 0 0 0-1.094-.444 4140.998 4140.998 0 0 0-15.005 5.957c-7.811 3.139-15.602 6.328-23.339 9.641-4.055 1.737-8.098 3.506-12.099 5.366-.511.238-.542.885-.348 1.326 3.796 8.601 7.712 17.149 11.673 25.677 3.961 8.527 7.885 17.063 12.004 25.509a619.93 619.93 0 0 0 7.006 13.92.99.99 0 0 0 1.326.347c2.366-1.205 4.746-2.382 7.125-3.562 3.68-1.824 7.363-3.642 11.049-5.454a7200.003 7200.003 0 0 1 24.077-11.794c2.737-1.334 5.477-2.664 8.219-3.99l.67-.323a.983.983 0 0 0 .347-1.326c-1.959-3.733-3.879-7.487-5.835-11.222-.579-1.106-2.252-.127-1.673.978l-.003.001Z" fill="#211715"/><path d="M299.283 336.762a1074.956 1074.956 0 0 0-7.641 3.704 5142.75 5142.75 0 0 0-11.317 5.527c-4.166 2.04-8.329 4.083-12.492 6.129a5436.84 5436.84 0 0 0-11.362 5.605c-2.582 1.278-5.164 2.555-7.735 3.856l-.591.301 1.326.347c-4.268-8.212-8.323-16.529-12.24-24.913-3.997-8.553-7.998-17.104-11.923-25.69a1288.881 1288.881 0 0 1-6.52-14.502.976.976 0 0 0-1.326-.348.99.99 0 0 0-.348 1.326c3.796 8.602 7.712 17.149 11.673 25.676 3.96 8.527 7.885 17.063 12.004 25.51a617.732 617.732 0 0 0 7.006 13.919.988.988 0 0 0 1.326.348c2.366-1.205 4.746-2.382 7.125-3.562a6543.285 6543.285 0 0 1 23.526-11.579c3.865-1.893 7.731-3.783 11.599-5.669 2.738-1.335 5.478-2.665 8.22-3.99l.669-.323a.977.977 0 0 0 .348-1.326.988.988 0 0 0-1.326-.348l-.001.002ZM284.442 311.35c2.135-2.578 4.354-5.088 6.554-7.609 3.121-3.577 6.25-7.147 9.388-10.71 2.391-2.72 4.735-5.491 7.179-8.167.021-.023.093-.096-.018-.006a.722.722 0 0 1 .115-.073c.174-.086.013-.029.162-.063.194-.048.396-.057.594-.026a4.603 4.603 0 0 1 1.731.682c1.159.702 2.559 1.888 2.887 3.27.148.627-.113 1.05-.517 1.512a2159.657 2159.657 0 0 0-5.661 6.461c-4.968 5.685-9.937 11.369-14.908 17.052l-1.833 2.081c-.823.931.543 2.308 1.37 1.37a2772.105 2772.105 0 0 0 15.501-17.709c1.309-1.499 2.619-2.998 3.93-4.496l1.979-2.256c.585-.667 1.353-1.34 1.753-2.14.773-1.544.171-3.16-.825-4.436a9.35 9.35 0 0 0-4.123-3.058c-1.159-.411-2.646-.459-3.547.509-.477.513-.926 1.056-1.388 1.582l-3.894 4.427c-3.24 3.685-6.476 7.372-9.709 11.064-2.537 2.903-5.087 5.799-7.571 8.747l-.519.621a1.001 1.001 0 0 0 0 1.371.977.977 0 0 0 1.37 0Z" fill="#211715"/><path d="M283.268 311.682c.345.214.67.462.994.706.242.182.485.366.727.551l.115.088.121.093.45.351c1.09.851 2.174 1.712 3.267 2.56.456.354.909.714 1.382 1.044a.976.976 0 0 0 1.326-.347.986.986 0 0 0-.348-1.326 25.969 25.969 0 0 1-.704-.523l-.144-.11-.106-.081-.118-.091-.168-.132-.386-.3-.827-.649c-1.127-.889-2.252-1.777-3.395-2.643-.393-.297-.785-.605-1.204-.864a.955.955 0 0 0-.735-.101.964.964 0 0 0-.692 1.183.96.96 0 0 0 .448.591h-.003Z" fill="#211715"/><path d="M282.823 310.407c-1.517 3.876-2.615 7.92-3.724 11.929a.974.974 0 0 0 .354 1.012.986.986 0 0 0 1.07.082c3.66-1.918 7.268-3.951 10.768-6.153 1.053-.662.081-2.342-.978-1.673-3.499 2.202-7.107 4.235-10.769 6.153l1.424 1.094c1.109-4.009 2.207-8.051 3.724-11.929a.98.98 0 0 0-.677-1.192.99.99 0 0 0-1.192.677ZM238.28 305.706a659.87 659.87 0 0 1 12.84-6.294 879.593 879.593 0 0 1 13.594-6.373c1.973-.899 3.95-1.789 5.943-2.64a.972.972 0 0 0 .348-1.326.998.998 0 0 0-1.326-.347c-3.911 1.669-7.77 3.463-11.622 5.264-4.663 2.18-9.306 4.4-13.93 6.659a608.927 608.927 0 0 0-6.824 3.383c-1.113.563-.133 2.236.978 1.674h-.001ZM245.407 320.304a327.97 327.97 0 0 1 20.678-10.077c1.901-.85 3.81-1.682 5.727-2.496a.974.974 0 0 0 .348-1.325.996.996 0 0 0-1.326-.348 334.6 334.6 0 0 0-20.666 9.601c-1.923.97-3.836 1.961-5.739 2.971-1.102.586-.124 2.26.978 1.674ZM252.305 334.551a295.152 295.152 0 0 1 18.152-8.866c1.65-.737 3.307-1.456 4.972-2.158a.995.995 0 0 0 .574-.462.997.997 0 0 0 .103-.729.977.977 0 0 0-1.192-.677c-6.27 2.627-12.433 5.513-18.499 8.58a278.202 278.202 0 0 0-5.088 2.638c-1.102.585-.123 2.259.978 1.674Z" fill="#211715"/></g><g filter="url(#ey)"><path d="m226.668 493.535-81.455-81.455 111.269-29.814-29.814 111.269Z" fill="url(#ez)"/></g><g filter="url(#eA)"><path d="M470 61c0 24.3-19.699 44-44 44s-44-19.7-44-44 19.699-44 44-44 44 19.7 44 44Zm-66 0c0 12.15 9.85 22 22 22s22-9.85 22-22-9.85-22-22-22-22 9.85-22 22Z" fill="url(#eB)"/></g><g filter="url(#eC)"><circle cx="43.446" cy="43.446" r="35.465" transform="rotate(150 43.446 43.446)" fill="url(#eD)"/></g><path d="M462.095 469.538c-35.527 25.341-84.87 17.084-110.211-18.443-25.341-35.527-17.083-84.87 18.443-110.211 35.527-25.341 84.87-17.084 110.211 18.443 25.341 35.527 17.084 84.87-18.443 110.211Zm-75.254-105.503c-22.741 16.221-28.027 47.806-11.806 70.547 16.221 22.741 47.806 28.026 70.547 11.805s28.026-47.806 11.805-70.547-47.805-28.026-70.546-11.805Z" fill="url(#eE)"/></g><defs><linearGradient id="ec" x1="476.841" y1="104.555" x2="465.731" y2="146.017" gradientUnits="userSpaceOnUse"><stop stop-color="#FF00B8"/><stop offset="1" stop-color="#BD00FF"/></linearGradient><linearGradient id="ee" x1="48.125" y1="402.495" x2="71.115" y2="438.744" gradientUnits="userSpaceOnUse"><stop stop-color="#EF8D21"/><stop offset="1" stop-color="#BD00FF"/></linearGradient><linearGradient id="eg" x1="85.755" y1="153.942" x2="97.862" y2="174.911" gradientUnits="userSpaceOnUse"><stop stop-color="#38C236"/><stop offset="1" stop-color="#2763FF"/></linearGradient><linearGradient id="eh" x1="95.457" y1="154.885" x2="103.966" y2="169.625" gradientUnits="userSpaceOnUse"><stop stop-color="#38C236"/><stop offset="1" stop-color="#2763FF"/></linearGradient><linearGradient id="ej" x1="241.412" y1="147.433" x2="232.545" y2="180.523" gradientUnits="userSpaceOnUse"><stop stop-color="#38C236"/><stop offset="1" stop-color="#2763FF"/></linearGradient><linearGradient id="el" x1="274.241" y1="235.018" x2="268.653" y2="255.876" gradientUnits="userSpaceOnUse"><stop stop-color="#38C236"/><stop offset="1" stop-color="#2763FF"/></linearGradient><linearGradient id="eo" x1="283.705" y1="171.578" x2="270.55" y2="220.675" gradientUnits="userSpaceOnUse"><stop stop-color="#38C236"/><stop offset="1" stop-color="#2763FF"/></linearGradient><linearGradient id="eq" x1="93" y1="191" x2="93" y2="224" gradientUnits="userSpaceOnUse"><stop stop-color="#38C236"/><stop offset="1" stop-color="#2763FF"/></linearGradient><linearGradient id="es" x1="86.933" y1="92.314" x2="78.832" y2="122.547" gradientUnits="userSpaceOnUse"><stop stop-color="#38C236"/><stop offset="1" stop-color="#2763FF"/></linearGradient><linearGradient id="et" x1="94.939" y1="102.044" x2="89.245" y2="123.295" gradientUnits="userSpaceOnUse"><stop stop-color="#38C236"/><stop offset="1" stop-color="#2763FF"/></linearGradient><linearGradient id="eu" x1="265.92" y1="99.537" x2="283.357" y2="129.739" gradientUnits="userSpaceOnUse"><stop stop-color="#38C236"/><stop offset="1" stop-color="#2763FF"/></linearGradient><linearGradient id="ew" x1="64.926" y1="294.742" x2="119.843" y2="309.457" gradientUnits="userSpaceOnUse"><stop stop-color="#38C236"/><stop offset="1" stop-color="#2763FF"/></linearGradient><linearGradient id="ez" x1="226.668" y1="493.535" x2="192.241" y2="365.052" gradientUnits="userSpaceOnUse"><stop stop-color="#38C236"/><stop offset="1" stop-color="#00FF94"/></linearGradient><linearGradient id="eB" x1="426" y1="17" x2="426" y2="105" gradientUnits="userSpaceOnUse"><stop stop-color="#38C236"/><stop offset="1" stop-color="#C2FF93"/></linearGradient><linearGradient id="eD" x1="43.446" y1="7.981" x2="43.446" y2="78.911" gradientUnits="userSpaceOnUse"><stop offset=".469" stop-color="#2763FF"/><stop offset="1" stop-color="#2763FF" stop-opacity="0"/></linearGradient><linearGradient id="eE" x1="480.538" y1="359.327" x2="358.957" y2="500.942" gradientUnits="userSpaceOnUse"><stop stop-color="#FFC700"/><stop offset="1" stop-color="#FFC700" stop-opacity="0"/></linearGradient><filter id="eb" x="433.555" y="88.555" width="75.907" height="75.907" filterUnits="userSpaceOnUse" color-interpolation-filters="sRGB"><feGaussianBlur stdDeviation="10"/></filter><filter id="ed" x="31.125" y="386.495" width="72.939" height="77.142" filterUnits="userSpaceOnUse" color-interpolation-filters="sRGB"><feGaussianBlur stdDeviation="10"/></filter><filter id="ek" x="240" y="214" width="62.894" height="62.894" filterUnits="userSpaceOnUse" color-interpolation-filters="sRGB"><feGaussianBlur stdDeviation="2.5"/></filter><filter id="en" x="243.001" y="162" width="68.253" height="68.253" filterUnits="userSpaceOnUse" color-interpolation-filters="sRGB"><feGaussianBlur stdDeviation="1.5"/></filter><filter id="er" x="58.501" y="87.032" width="52.606" height="43.01" filterUnits="userSpaceOnUse" color-interpolation-filters="sRGB"><feGaussianBlur stdDeviation="2.5"/></filter><filter id="ev" x="33" y="243" width="118.612" height="118.613" filterUnits="userSpaceOnUse" color-interpolation-filters="sRGB"><feGaussianBlur stdDeviation="2"/></filter><filter id="ey" x="128.213" y="366.266" width="151.27" height="151.269" filterUnits="userSpaceOnUse" color-interpolation-filters="sRGB"><feGaussianBlur stdDeviation="10"/></filter><filter id="eA" x="378" y="17" width="96" height="96" filterUnits="userSpaceOnUse" color-interpolation-filters="sRGB"><feGaussianBlur stdDeviation="2"/></filter><filter id="eC" x="3.976" y="7.975" width="78.941" height="78.942" filterUnits="userSpaceOnUse" color-interpolation-filters="sRGB"><feGaussianBlur stdDeviation="2"/></filter><clipPath id="ea"><path fill="#fff" d="M0 0h500v500H0z"/></clipPath><clipPath id="ef"><path fill="#fff" transform="translate(47 51)" d="M0 0h398v398H0z"/></clipPath><clipPath id="ei"><path fill="#fff" transform="rotate(15 -430.663 925.513)" d="M0 0h34.257v34.257H0z"/></clipPath><clipPath id="em"><path fill="#fff" transform="rotate(15 -497.072 1066.743)" d="M0 0h50.83v50.83H0z"/></clipPath><clipPath id="ep"><path fill="#fff" transform="translate(76 191)" d="M0 0h34v33H0z"/></clipPath><clipPath id="ex"><path fill="#fff" transform="translate(217 267)" d="M0 0h98v98H0z"/></clipPath></defs></symbol><symbol viewBox="0 0 512.457 512.457" xml:space="preserve" id="phone_1" xmlns="http://www.w3.org/2000/svg"><path d="M505.847 376.187c-2.506-4.739-5.667-9.463-9.428-14.215-8.571-10.83-20.227-21.791-34.287-32.906-9.809-7.755-20.237-15.145-30.657-21.961-6.267-4.1-11.191-7.129-14.123-8.847-24.749-14.092-53.262-12.224-67.987 11.507-.684.812-1.553 1.841-2.567 3.034a676.664 676.664 0 0 1-8.252 9.535l-1.151 1.298c-4.427 4.973-8.479 9.158-8.33 9.057-16.299 11.031-26.909 10.163-41.279-4.208l-103.81-103.808c-14.37-14.37-15.239-24.98-4.201-41.289-.107.158 4.078-3.894 9.051-8.321l1.298-1.151a676.664 676.664 0 0 1 9.535-8.252 720.108 720.108 0 0 1 3.034-2.567c23.731-14.725 25.602-43.232 11.64-67.756-1.851-3.163-4.88-8.086-8.98-14.354-6.816-10.42-14.206-20.848-21.961-30.657-11.114-14.06-22.076-25.716-32.906-34.287-4.752-3.761-9.477-6.922-14.222-9.432-22.077-11.67-49.146-7.606-66.816 10.03L46.514 39.592c-76.079 76.079-55.111 166.746 35.804 257.661l66.43 66.451 66.458 66.437c90.913 90.913 181.581 111.881 257.666 35.795l22.919-22.94c17.659-17.625 21.74-44.738 10.056-66.809zm-40.218 36.632-22.934 22.955c-55.66 55.66-120.958 40.559-197.322-35.804l-66.456-66.434-66.427-66.448c-76.366-76.366-91.467-141.664-35.8-197.331l22.919-22.94c4.408-4.4 11.174-5.415 16.709-2.489 2.276 1.204 4.866 2.937 7.688 5.17 7.823 6.191 16.675 15.605 25.913 27.291 6.887 8.712 13.561 18.13 19.727 27.554 3.689 5.64 6.357 9.977 7.74 12.337 3.849 6.764 3.612 9.72 2.477 10.358l-3.217 2.217a671.42 671.42 0 0 0-4.631 3.907 725.891 725.891 0 0 0-10.144 8.78l-1.418 1.257c-8.44 7.514-13.205 12.127-16.009 16.265-22.372 33.057-19.645 66.377 9.36 95.382l103.808 103.808c29.005 29.005 62.325 31.733 95.373 9.367 4.147-2.81 8.76-7.575 16.274-16.015.63-.709.63-.709 1.257-1.418a719.31 719.31 0 0 0 8.78-10.144c1.76-2.069 3.12-3.686 3.907-4.631l2.217-3.217c.637-1.135 3.594-1.371 10.589 2.611 2.129 1.25 6.466 3.918 12.106 7.607 9.425 6.165 18.842 12.839 27.555 19.727 11.686 9.238 21.099 18.09 27.29 25.913 2.233 2.821 3.966 5.412 5.173 7.693a14.17 14.17 0 0 1-2.504 16.672z"/></symbol><symbol viewBox="0 0 488.4 488.4" xml:space="preserve" id="search_1" xmlns="http://www.w3.org/2000/svg"><path d="M0 203.25c0 112.1 91.2 203.2 203.2 203.2 51.6 0 98.8-19.4 134.7-51.2l129.5 129.5c2.4 2.4 5.5 3.6 8.7 3.6s6.3-1.2 8.7-3.6c4.8-4.8 4.8-12.5 0-17.3l-129.6-129.5c31.8-35.9 51.2-83 51.2-134.7C406.4 91.15 315.2.05 203.2.05S0 91.15 0 203.25zm381.9 0c0 98.5-80.2 178.7-178.7 178.7s-178.7-80.2-178.7-178.7 80.2-178.7 178.7-178.7 178.7 80.1 178.7 178.7z"/></symbol><symbol viewBox="0 0 24 24" fill="none" id="search_2" xmlns="http://www.w3.org/2000/svg"><path d="M14.954 14.946 21 21m-4-11a7 7 0 1 1-14 0 7 7 0 0 1 14 0Z"/></symbol><symbol viewBox="0 0 24 24" fill="none" id="search_3" xmlns="http://www.w3.org/2000/svg"><path clip-rule="evenodd" d="M10 5a5 5 0 1 0 0 10 5 5 0 0 0 0-10Zm-7 5a7 7 0 1 1 12.606 4.192l5.101 5.1a1 1 0 0 1-1.414 1.415l-5.1-5.1A7 7 0 0 1 3 10Z"/></symbol></svg>