<?xml version="1.0" encoding="utf-8"?><!-- Uploaded to: SVG Repo, www.svgrepo.com, Generator: SVG Repo Mixer Tools -->

<svg xmlns="http://www.w3.org/2000/svg" id="Layer_1" viewBox="0 0 512 512"><path d="m175.8 99.335 36.099 29.015-12.15 44.691c-1.279 4.706.443 9.599 4.389 12.466 2.053 1.492 4.441 2.241 6.835 2.241 2.208 0 4.42-.638 6.377-1.919l38.749-25.366 38.75 25.366c4.08 2.67 9.265 2.542 13.211-.322 3.945-2.867 5.668-7.759 4.389-12.466l-12.149-44.691 36.099-29.014c3.801-3.055 5.284-8.027 3.776-12.666s-5.629-7.789-10.499-8.025l-46.258-2.255-16.439-43.298c-1.729-4.551-5.999-7.492-10.879-7.492s-9.151 2.941-10.878 7.491l-16.439 43.298-46.257 2.255c-4.871.236-8.993 3.386-10.5 8.025s-.027 9.61 3.774 12.666zm56.617-7.104c4.622-.226 8.669-3.167 10.31-7.492l13.373-35.222 13.373 35.221c1.642 4.326 5.688 7.267 10.312 7.493l37.631 1.834-29.367 23.604c-3.606 2.9-5.151 7.659-3.937 12.121l9.884 36.356-31.524-20.636c-1.936-1.267-4.153-1.9-6.372-1.9s-4.438.634-6.374 1.9l-31.521 20.635 9.884-36.356c1.214-4.466-.333-9.225-3.939-12.122l-29.366-23.603zm-142.461 172.687c2.108 3.684 5.924 5.859 10.054 5.859.616 0 1.238-.048 1.863-.147 4.817-.763 8.574-4.34 9.571-9.115l9.463-45.336 45.337-9.464c4.774-.997 8.352-4.754 9.114-9.572.762-4.817-1.48-9.495-5.712-11.917l-40.192-23.01 5.009-46.041c.527-4.849-1.939-9.412-6.286-11.626-4.345-2.214-9.488-1.528-13.099 1.749l-34.304 31.115-42.239-18.992c-4.439-1.997-9.538-1.058-12.989 2.394-3.452 3.451-4.392 8.55-2.396 12.99l18.992 42.24-31.115 34.304c-3.276 3.612-3.963 8.754-1.749 13.1s6.778 6.814 11.626 6.286l46.042-5.009zm-34.042-80.238c3.109-3.428 3.892-8.37 1.994-12.589l-15.45-34.362 34.363 15.45c4.221 1.897 9.163 1.115 12.589-1.994l27.906-25.312-4.075 37.456c-.5 4.601 1.772 9.059 5.787 11.355l32.697 18.718-36.88 7.699c-4.531.945-8.069 4.483-9.013 9.012l-7.698 36.881-18.719-32.697c-2.088-3.647-5.956-5.855-10.093-5.855-.419 0-.841.023-1.264.069l-37.455 4.075zm445.059 26.152-31.116-34.305 18.992-42.239c1.997-4.439 1.058-9.539-2.394-12.99-3.451-3.452-8.549-4.391-12.99-2.395l-42.239 18.992-34.305-31.115c-3.612-3.277-8.754-3.962-13.1-1.749-4.346 2.214-6.813 6.778-6.286 11.626l5.009 46.042-40.191 23.01c-4.232 2.422-6.475 7.1-5.712 11.917.762 4.817 4.34 8.575 9.115 9.572l45.336 9.464 9.463 45.336c.997 4.774 4.754 8.352 9.571 9.114.625.099 1.247.147 1.863.147 4.13 0 7.946-2.176 10.054-5.859l23.01-40.193 46.043 5.01c4.848.53 9.411-1.94 11.625-6.286s1.528-9.488-1.748-13.099zm-57.03-1.841c-4.603-.498-9.058 1.771-11.355 5.787l-18.718 32.697-7.699-36.882c-.946-4.53-4.484-8.067-9.013-9.011l-36.88-7.699 32.696-18.719c4.017-2.3 6.288-6.758 5.787-11.356l-4.075-37.455 27.904 25.311c3.427 3.11 8.369 3.894 12.591 1.996l34.362-15.45-15.45 34.363c-1.897 4.221-1.114 9.162 1.995 12.588l25.312 27.907zm-87.148 173.282c-17.584-15.902-38.459-27.25-60.921-33.409 23.95-13.811 40.118-39.666 40.118-69.242 0-44.052-35.839-79.891-79.892-79.891s-79.891 35.839-79.891 79.891c0 29.576 16.167 55.431 40.117 69.242-22.464 6.158-43.339 17.507-60.924 33.41-27.438 24.812-44.707 58.649-48.626 95.276-.241 2.257.487 4.51 2.004 6.199 1.517 1.688 3.68 2.652 5.95 2.652l282.736-.001c2.27 0 4.433-.964 5.95-2.653 1.517-1.688 2.246-3.941 2.004-6.198-3.918-36.628-21.187-70.464-48.625-95.276zm-100.721-22.761c.009 0 .018.001.027.001s.018-.001.026-.001c1.435 0 2.864.031 4.288.076l21.427 67.371-25.743 29.067-25.744-29.067 21.427-67.371c1.426-.045 2.856-.076 4.292-.076zm-63.865-79.89c0-35.229 28.662-63.891 63.891-63.891 35.23 0 63.892 28.662 63.892 63.891 0 35.221-28.648 63.876-63.865 63.89-.009 0-.018 0-.027 0s-.017 0-.026 0c-35.217-.015-63.865-28.67-63.865-63.89zm42.258 81.62-20.736 65.195c-.854 2.685-.233 5.62 1.635 7.729l32.091 36.233h-123.53c9.856-56.671 54.596-100.138 110.54-109.157zm30.274 109.158 32.09-36.233c1.868-2.109 2.489-5.044 1.635-7.729l-20.735-65.196c55.943 9.019 100.683 52.485 110.54 109.157zm-108.933-110.888c4.418 0 8-3.582 8-8s-3.582-8-8-8h-61.361c-3.524-12.949-15.379-22.5-29.428-22.5-16.818 0-30.5 13.683-30.5 30.5s13.683 30.5 30.5 30.5c14.05 0 25.904-9.552 29.428-22.5zm-90.789 6.5c-7.996 0-14.5-6.505-14.5-14.5 0-7.996 6.505-14.5 14.5-14.5s14.5 6.505 14.5 14.5-6.505 14.5-14.5 14.5zm382.164-45.001c-14.05 0-25.904 9.552-29.429 22.5h-61.361c-4.418 0-8 3.582-8 8s3.582 8 8 8h61.361c3.524 12.948 15.379 22.5 29.429 22.5 16.818 0 30.5-13.682 30.5-30.5s-13.683-30.5-30.5-30.5zm0 45.001c-7.996 0-14.5-6.505-14.5-14.5 0-7.996 6.505-14.5 14.5-14.5s14.5 6.505 14.5 14.5-6.505 14.5-14.5 14.5z"></path></svg> 